<?xml version="1.0" encoding="UTF-8"?>
<!DOCTYPE svg PUBLIC "-//W3C//DTD SVG 1.1//EN" "http://www.w3.org/Graphics/SVG/1.1/DTD/svg11.dtd">
<svg xmlns="http://www.w3.org/2000/svg" version="1.1" width="425px" height="425px" style="shape-rendering:geometricPrecision; text-rendering:geometricPrecision; image-rendering:optimizeQuality; fill-rule:evenodd; clip-rule:evenodd" xmlns:xlink="http://www.w3.org/1999/xlink">
<g><path style="opacity:0.278" fill="#f7f7f7" d="M -0.5,-0.5 C 141.167,-0.5 282.833,-0.5 424.5,-0.5C 424.5,141.167 424.5,282.833 424.5,424.5C 282.833,424.5 141.167,424.5 -0.5,424.5C -0.5,282.833 -0.5,141.167 -0.5,-0.5 Z"/></g>
<g><path style="opacity:0.996" fill="#15130e" d="M 311.5,128.5 C 311.334,138.172 311.5,147.839 312,157.5C 312.383,158.056 312.883,158.389 313.5,158.5C 317.722,168.707 320.722,179.374 322.5,190.5C 323.009,195.703 324.676,200.37 327.5,204.5C 328.984,209.479 330.484,214.479 332,219.5C 332.614,237.289 326.281,252.289 313,264.5C 313.244,275.149 315.244,285.482 319,295.5C 322.016,301.531 325.016,307.531 328,313.5C 331.79,314.638 334.957,316.638 337.5,319.5C 336.167,319.5 335.5,320.167 335.5,321.5C 328.302,315.332 320.802,314.999 313,320.5C 312.331,317.655 313.497,315.988 316.5,315.5C 318.55,315.039 320.55,314.372 322.5,313.5C 323.776,312.386 323.776,311.386 322.5,310.5C 319.768,304.482 316.935,298.482 314,292.5C 311.921,284.688 310.088,276.855 308.5,269C 303.346,271.769 298.346,275.102 293.5,279C 290.167,280.667 286.833,282.333 283.5,284C 282.365,284.749 281.365,284.583 280.5,283.5C 289.56,277.948 298.227,271.781 306.5,265C 312.732,258.604 318.399,251.771 323.5,244.5C 314.116,241.902 309.116,235.735 308.5,226C 308.512,218.166 312.179,212.999 319.5,210.5C 321.5,210.5 323.5,210.5 325.5,210.5C 325.267,207.458 324.267,204.792 322.5,202.5C 319.019,190.268 315.852,177.934 313,165.5C 309.948,158.469 306.114,151.969 301.5,146C 301.85,144.743 302.517,144.409 303.5,145C 305,146.5 306.5,148 308,149.5C 309.104,129.677 306.937,110.343 301.5,91.5C 300.61,85.8338 298.943,80.5005 296.5,75.5C 295.797,73.2843 294.464,71.451 292.5,70C 288.646,66.7771 284.312,64.6105 279.5,63.5C 276.713,62.5233 273.713,62.19 270.5,62.5C 270.19,65.7131 270.523,68.7131 271.5,71.5C 272.337,91.2053 273.837,110.872 276,130.5C 276.465,131.931 277.299,133.097 278.5,134C 281.377,134.956 284.044,136.289 286.5,138C 284.115,138.556 281.782,138.39 279.5,137.5C 276.423,136.144 273.09,135.311 269.5,135C 258.326,134.174 247.326,134.341 236.5,135.5C 230.209,135.495 224.209,136.495 218.5,138.5C 213.15,139.172 208.15,140.839 203.5,143.5C 204.833,145.167 206.167,146.833 207.5,148.5C 207,148.833 206.5,149.167 206,149.5C 181.364,133.272 154.531,122.105 125.5,116C 119.889,114.731 114.222,113.898 108.5,113.5C 107.291,122.826 109.291,131.326 114.5,139C 137.414,151.472 161.414,161.305 186.5,168.5C 183.893,169.318 181.226,169.818 178.5,170C 177.518,172.738 176.852,175.572 176.5,178.5C 174.973,186.107 174.307,193.94 174.5,202C 174.501,207.677 174.834,213.177 175.5,218.5C 174.561,234.477 177.728,249.477 185,263.5C 192.025,271.708 200.525,277.708 210.5,281.5C 199.218,281.018 190.218,276.018 183.5,266.5C 182.434,265.308 181.601,265.641 181,267.5C 180.79,265.942 180.29,264.609 179.5,263.5C 179.291,262.078 178.791,260.745 178,259.5C 177.107,258.289 176.274,258.289 175.5,259.5C 170.779,267.201 166.113,274.868 161.5,282.5C 160.778,283.551 159.778,284.218 158.5,284.5C 157.212,281.403 157.712,278.403 160,275.5C 165,268.5 170,261.5 175,254.5C 174.661,248.13 173.827,241.797 172.5,235.5C 172.691,223.964 172.025,212.631 170.5,201.5C 167.672,200.345 165.005,199.011 162.5,197.5C 162.328,196.508 162.662,195.842 163.5,195.5C 165.746,196.455 168.079,197.122 170.5,197.5C 170.425,188.287 171.758,179.287 174.5,170.5C 166.697,166.93 158.697,163.93 150.5,161.5C 132.493,153.329 114.827,144.329 97.5,134.5C 88.9621,129.138 81.1287,122.805 74,115.5C 72.7978,113.323 72.2978,110.989 72.5,108.5C 80.8333,108.5 89.1667,108.5 97.5,108.5C 101.964,109.644 106.63,110.31 111.5,110.5C 119.609,111.36 127.609,112.86 135.5,115C 146.442,118.815 157.442,122.315 168.5,125.5C 179.033,130.683 189.533,136.017 200,141.5C 209.023,137.103 218.523,134.436 228.5,133.5C 241.815,132.667 255.149,132.334 268.5,132.5C 269.833,132.5 271.167,132.5 272.5,132.5C 267.914,99.6563 266.414,66.6563 268,33.5C 268.077,30.3348 269.41,28.0015 272,26.5C 274.616,28.1122 276.95,30.1122 279,32.5C 298.294,61.5477 309.127,93.5477 311.5,128.5 Z"/></g>
<g><path style="opacity:1" fill="#463b11" d="M 279.5,63.5 C 276.833,63.5 274.167,63.5 271.5,63.5C 271.5,66.1667 271.5,68.8333 271.5,71.5C 270.523,68.7131 270.19,65.7131 270.5,62.5C 273.713,62.19 276.713,62.5233 279.5,63.5 Z"/></g>
<g><path style="opacity:1" fill="#9a8125" d="M 296.5,75.5 C 298.943,80.5005 300.61,85.8338 301.5,91.5C 299.057,86.4995 297.39,81.1662 296.5,75.5 Z"/></g>
<g><path style="opacity:0.396" fill="#6a6a6a" d="M 97.5,108.5 C 102.434,108.229 107.1,108.896 111.5,110.5C 106.63,110.31 101.964,109.644 97.5,108.5 Z"/></g>
<g><path style="opacity:0.29" fill="#eaeaea" d="M 335.5,116.5 C 355.167,116.5 374.833,116.5 394.5,116.5C 394.5,119.833 394.5,123.167 394.5,126.5C 378.833,126.5 363.167,126.5 347.5,126.5C 347.5,134.833 347.5,143.167 347.5,151.5C 363.5,151.5 379.5,151.5 395.5,151.5C 395.5,155.167 395.5,158.833 395.5,162.5C 379.5,162.5 363.5,162.5 347.5,162.5C 347.5,173.833 347.5,185.167 347.5,196.5C 363.167,196.5 378.833,196.5 394.5,196.5C 394.5,199.833 394.5,203.167 394.5,206.5C 374.833,206.5 355.167,206.5 335.5,206.5C 335.5,176.5 335.5,146.5 335.5,116.5 Z"/></g>
<g><path style="opacity:1" fill="#fad33c" d="M 279.5,63.5 C 284.312,64.6105 288.646,66.7771 292.5,70C 294.464,71.451 295.797,73.2843 296.5,75.5C 297.39,81.1662 299.057,86.4995 301.5,91.5C 306.937,110.343 309.104,129.677 308,149.5C 306.5,148 305,146.5 303.5,145C 302.517,144.409 301.85,144.743 301.5,146C 306.114,151.969 309.948,158.469 313,165.5C 315.852,177.934 319.019,190.268 322.5,202.5C 322.317,204.936 322.984,207.103 324.5,209C 322.618,209.198 320.952,209.698 319.5,210.5C 312.179,212.999 308.512,218.166 308.5,226C 309.116,235.735 314.116,241.902 323.5,244.5C 318.399,251.771 312.732,258.604 306.5,265C 298.227,271.781 289.56,277.948 280.5,283.5C 281.365,284.583 282.365,284.749 283.5,284C 286.833,282.333 290.167,280.667 293.5,279C 298.346,275.102 303.346,271.769 308.5,269C 310.088,276.855 311.921,284.688 314,292.5C 316.935,298.482 319.768,304.482 322.5,310.5C 320.832,312.513 318.832,314.18 316.5,315.5C 313.497,315.988 312.331,317.655 313,320.5C 320.802,314.999 328.302,315.332 335.5,321.5C 338.479,323.812 341.146,326.479 343.5,329.5C 341.255,333.983 339.589,338.65 338.5,343.5C 335.932,348.41 334.932,353.743 335.5,359.5C 336.5,359.5 337.5,359.5 338.5,359.5C 339.374,356.211 340.041,352.877 340.5,349.5C 342.893,340.32 345.893,331.32 349.5,322.5C 349.833,322.167 350.167,321.833 350.5,321.5C 350.833,322.667 351.167,323.833 351.5,325C 350.49,328.535 350.49,332.035 351.5,335.5C 352.192,334.975 352.692,334.308 353,333.5C 354.407,327.093 355.74,320.759 357,314.5C 357.627,320.185 357.46,325.851 356.5,331.5C 357.11,336.586 358.11,336.586 359.5,331.5C 360.444,334.668 360.444,338.001 359.5,341.5C 357.486,357.382 351.486,371.549 341.5,384C 340.167,384.667 338.833,384.667 337.5,384C 336.521,381.863 335.188,380.029 333.5,378.5C 332.125,382.094 329.458,383.428 325.5,382.5C 312.516,383.299 299.516,383.633 286.5,383.5C 285.402,382.399 285.235,381.066 286,379.5C 301.211,355.699 309.711,329.699 311.5,301.5C 311.167,298.167 310.833,294.833 310.5,291.5C 308.691,305.552 306.358,319.552 303.5,333.5C 302.129,335.936 301.129,338.603 300.5,341.5C 295.442,354.952 289.276,367.952 282,380.5C 281.76,382.977 282.594,385.144 284.5,387C 281.741,387.977 279.741,387.144 278.5,384.5C 278.003,386.216 277.669,387.883 277.5,389.5C 276.167,388.167 274.833,386.833 273.5,385.5C 273.404,390.701 271.738,391.534 268.5,388C 267.207,387.51 265.873,387.343 264.5,387.5C 264.719,388.675 264.386,389.675 263.5,390.5C 261.775,386.877 259.108,385.71 255.5,387C 254.299,386.097 253.465,384.931 253,383.5C 252.939,369.598 252.106,355.764 250.5,342C 251.26,335.461 252.26,328.961 253.5,322.5C 255.507,319.43 255.84,316.097 254.5,312.5C 253.893,312.624 253.56,312.957 253.5,313.5C 251.534,318.242 250.034,323.242 249,328.5C 246.755,321.298 244.755,313.964 243,306.5C 241.119,303.649 240.285,303.982 240.5,307.5C 246.537,334.381 249.871,361.381 250.5,388.5C 249.232,387.572 247.899,387.405 246.5,388C 243.784,392.367 240.951,392.534 238,388.5C 236.263,389.62 234.429,390.62 232.5,391.5C 230.167,388.833 227.833,388.833 225.5,391.5C 224.532,390.511 223.365,389.844 222,389.5C 220.331,390.166 218.831,390.166 217.5,389.5C 219.84,386.315 220.006,382.981 218,379.5C 210.148,367.128 202.814,354.462 196,341.5C 192.25,330.746 188.417,320.079 184.5,309.5C 183.348,312.106 183.182,314.773 184,317.5C 191.691,341.435 202.525,363.769 216.5,384.5C 200.164,387.872 183.83,388.205 167.5,385.5C 167.666,380.156 167.499,374.823 167,369.5C 166.586,369.043 166.086,368.709 165.5,368.5C 164.792,374.187 164.125,379.854 163.5,385.5C 162.635,386.583 161.635,386.749 160.5,386C 155.207,380.577 151.041,374.411 148,367.5C 144.861,358.585 142.028,349.585 139.5,340.5C 138.988,336.965 138.988,333.632 139.5,330.5C 139.5,331.167 139.833,331.5 140.5,331.5C 140.56,332.043 140.893,332.376 141.5,332.5C 142.176,331.398 142.842,330.398 143.5,329.5C 144.167,330.167 144.833,330.833 145.5,331.5C 146.472,332.751 147.139,332.418 147.5,330.5C 147.199,328.578 146.533,326.912 145.5,325.5C 145.322,324.305 144.989,323.138 144.5,322C 144.974,320.392 145.641,320.226 146.5,321.5C 150.333,328.5 154.167,335.5 158,342.5C 158.667,340.167 158.667,337.833 158,335.5C 156.287,331.905 154.453,328.405 152.5,325C 155.168,320.08 159.335,317.58 165,317.5C 171.054,318.018 176.554,320.018 181.5,323.5C 181.833,323.167 182.167,322.833 182.5,322.5C 179.413,318.587 175.413,316.087 170.5,315C 169.941,314.275 169.608,313.442 169.5,312.5C 174.812,297.242 179.478,281.908 183.5,266.5C 190.218,276.018 199.218,281.018 210.5,281.5C 200.525,277.708 192.025,271.708 185,263.5C 177.728,249.477 174.561,234.477 175.5,218.5C 175.334,205.149 175.667,191.815 176.5,178.5C 176.852,175.572 177.518,172.738 178.5,170C 181.226,169.818 183.893,169.318 186.5,168.5C 161.414,161.305 137.414,151.472 114.5,139C 109.291,131.326 107.291,122.826 108.5,113.5C 114.222,113.898 119.889,114.731 125.5,116C 154.531,122.105 181.364,133.272 206,149.5C 206.5,149.167 207,148.833 207.5,148.5C 206.167,146.833 204.833,145.167 203.5,143.5C 208.15,140.839 213.15,139.172 218.5,138.5C 224.791,138.505 230.791,137.505 236.5,135.5C 250.904,135.064 265.237,135.731 279.5,137.5C 281.782,138.39 284.115,138.556 286.5,138C 284.044,136.289 281.377,134.956 278.5,134C 277.299,133.097 276.465,131.931 276,130.5C 273.837,110.872 272.337,91.2053 271.5,71.5C 271.5,68.8333 271.5,66.1667 271.5,63.5C 274.167,63.5 276.833,63.5 279.5,63.5 Z"/></g>
<g><path style="opacity:0.647" fill="#5b5b5b" d="M 268.5,132.5 C 255.149,132.334 241.815,132.667 228.5,133.5C 228.5,133.167 228.5,132.833 228.5,132.5C 241.987,131.275 255.321,131.275 268.5,132.5 Z"/></g>
<g><path style="opacity:0.29" fill="#ebebeb" d="M 228.5,132.5 C 228.5,132.833 228.5,133.167 228.5,133.5C 218.523,134.436 209.023,137.103 200,141.5C 189.533,136.017 179.033,130.683 168.5,125.5C 169.477,122.713 169.81,119.713 169.5,116.5C 183.878,116.109 198.211,116.609 212.5,118C 219.93,120.6 225.263,125.433 228.5,132.5 Z"/></g>
<g><path style="opacity:1" fill="#8a7421" d="M 236.5,135.5 C 247.326,134.341 258.326,134.174 269.5,135C 273.09,135.311 276.423,136.144 279.5,137.5C 265.237,135.731 250.904,135.064 236.5,135.5 Z"/></g>
<g><path style="opacity:0.29" fill="#e9e9e9" d="M 97.5,134.5 C 114.827,144.329 132.493,153.329 150.5,161.5C 137.211,162.297 123.878,162.797 110.5,163C 109.531,167.737 109.197,172.57 109.5,177.5C 105.426,177.218 101.426,176.552 97.5,175.5C 97.5,161.833 97.5,148.167 97.5,134.5 Z"/></g>
<g><path style="opacity:1" fill="#ab902a" d="M 236.5,135.5 C 230.791,137.505 224.791,138.505 218.5,138.5C 224.209,136.495 230.209,135.495 236.5,135.5 Z"/></g>
<g><path style="opacity:0.675" fill="#3e3e3e" d="M 311.5,128.5 C 312.214,138.37 312.88,148.37 313.5,158.5C 312.883,158.389 312.383,158.056 312,157.5C 311.5,147.839 311.334,138.172 311.5,128.5 Z"/></g>
<g><path style="opacity:0.278" fill="#f4f4f4" d="M 150.5,161.5 C 158.697,163.93 166.697,166.93 174.5,170.5C 171.758,179.287 170.425,188.287 170.5,197.5C 168.079,197.122 165.746,196.455 163.5,195.5C 146.019,187.963 128.019,181.963 109.5,177.5C 109.197,172.57 109.531,167.737 110.5,163C 123.878,162.797 137.211,162.297 150.5,161.5 Z"/></g>
<g><path style="opacity:1" fill="#0d0b05" d="M 309.5,181.5 C 310.726,185.845 310.726,190.178 309.5,194.5C 305.698,201.05 300.032,203.216 292.5,201C 283.503,195.851 281.336,188.684 286,179.5C 294.535,171.225 302.368,171.892 309.5,181.5 Z"/></g>
<g><path style="opacity:1" fill="#fcd43d" d="M 71.5,175.5 C 81.9089,176.273 92.2422,177.606 102.5,179.5C 106.681,180.66 111.015,181.66 115.5,182.5C 131.575,186.526 147.242,191.526 162.5,197.5C 165.005,199.011 167.672,200.345 170.5,201.5C 170.584,213.02 171.251,224.354 172.5,235.5C 173.827,241.797 174.661,248.13 175,254.5C 170,261.5 165,268.5 160,275.5C 157.712,278.403 157.212,281.403 158.5,284.5C 162.493,287.163 166.827,289.33 171.5,291C 172.337,292.011 172.67,293.178 172.5,294.5C 171.129,296.936 170.129,299.603 169.5,302.5C 169.631,303.376 169.298,304.043 168.5,304.5C 166.393,301.939 163.726,300.106 160.5,299C 153.158,296.554 145.991,293.72 139,290.5C 140.528,282.393 142.695,274.393 145.5,266.5C 147.277,263.495 148.277,260.162 148.5,256.5C 149.167,252.833 149.833,249.167 150.5,245.5C 131.517,244.285 112.517,243.285 93.5,242.5C 81.8507,221.513 71.8507,199.846 63.5,177.5C 65.6353,175.631 68.3019,174.964 71.5,175.5 Z"/></g>
<g><path style="opacity:1" fill="#e7e7e7" d="M 293.5,177.5 C 298.772,178.263 300.439,181.097 298.5,186C 292.086,188.593 289.586,186.426 291,179.5C 291.995,178.934 292.828,178.267 293.5,177.5 Z"/></g>
<g><path style="opacity:1" fill="#0f0d07" d="M 209.5,178.5 C 222.562,177.73 228.729,183.73 228,196.5C 224.121,205.045 217.621,208.212 208.5,206C 200.247,200.021 198.414,192.521 203,183.5C 204.965,181.45 207.132,179.783 209.5,178.5 Z"/></g>
<g><path style="opacity:1" fill="#ececec" d="M 211.5,182.5 C 218.997,181.804 220.997,184.637 217.5,191C 210.781,191.726 208.781,188.893 211.5,182.5 Z"/></g>
<g><path style="opacity:1" fill="#6d5c1b" d="M 309.5,181.5 C 310.997,183.29 311.664,185.456 311.5,188C 311.664,190.544 310.997,192.71 309.5,194.5C 310.726,190.178 310.726,185.845 309.5,181.5 Z"/></g>
<g><path style="opacity:0.769" fill="#505050" d="M 322.5,190.5 C 324.538,194.94 326.204,199.607 327.5,204.5C 324.676,200.37 323.009,195.703 322.5,190.5 Z"/></g>
<g><path style="opacity:1" fill="#b0952b" d="M 176.5,178.5 C 175.667,191.815 175.334,205.149 175.5,218.5C 174.834,213.177 174.501,207.677 174.5,202C 174.307,193.94 174.973,186.107 176.5,178.5 Z"/></g>
<g><path style="opacity:1" fill="#1a1607" d="M 262.5,196.5 C 264.833,196.5 267.167,196.5 269.5,196.5C 268.661,201.668 266.161,202.668 262,199.5C 261.53,198.423 261.697,197.423 262.5,196.5 Z"/></g>
<g><path style="opacity:1" fill="#0e0904" d="M 262.5,207.5 C 264.857,207.337 267.19,207.503 269.5,208C 274.133,209.992 278.799,211.992 283.5,214C 286.711,214.798 289.711,214.298 292.5,212.5C 292.833,213 293.167,213.5 293.5,214C 292.303,215.52 290.803,216.687 289,217.5C 286.533,231.9 281.867,245.566 275,258.5C 269.748,267.141 262.581,269.307 253.5,265C 246.114,257.601 241.28,248.768 239,238.5C 237.458,233.08 236.291,227.58 235.5,222C 234.068,219.724 232.401,217.558 230.5,215.5C 231.79,214.592 233.123,214.759 234.5,216C 238.833,216.667 243.167,216.667 247.5,216C 252.563,213.139 257.563,210.306 262.5,207.5 Z"/></g>
<g><path style="opacity:1" fill="#8f7823" d="M 322.5,202.5 C 324.267,204.792 325.267,207.458 325.5,210.5C 323.5,210.5 321.5,210.5 319.5,210.5C 320.952,209.698 322.618,209.198 324.5,209C 322.984,207.103 322.317,204.936 322.5,202.5 Z"/></g>
<g><path style="opacity:1" fill="#e54b34" d="M 318.5,213.5 C 320.857,213.337 323.19,213.503 325.5,214C 326.893,215.171 327.727,216.671 328,218.5C 328.667,223.5 328.667,228.5 328,233.5C 327.145,239.121 323.978,240.954 318.5,239C 312.739,233.763 310.905,227.263 313,219.5C 315.04,217.63 316.873,215.63 318.5,213.5 Z"/></g>
<g><path style="opacity:1" fill="#22170a" d="M 190.5,217.5 C 200.399,216.558 207.565,220.558 212,229.5C 212.903,244.597 205.737,251.764 190.5,251C 180.134,245.112 176.967,236.612 181,225.5C 183.772,222.217 186.939,219.55 190.5,217.5 Z"/></g>
<g><path style="opacity:1" fill="#e74b34" d="M 191.5,220.5 C 207.842,221.162 212.509,228.829 205.5,243.5C 201.195,247.274 196.195,248.44 190.5,247C 182.963,242.968 180.463,236.802 183,228.5C 185.538,225.488 188.371,222.821 191.5,220.5 Z"/></g>
<g><path style="opacity:1" fill="#e86f74" d="M 254.5,228.5 C 265.509,227.01 274.509,230.51 281.5,239C 279.041,245.331 276.208,251.498 273,257.5C 263.684,267.586 255.684,266.586 249,254.5C 245.527,249.247 243.527,243.581 243,237.5C 246.733,234.255 250.566,231.255 254.5,228.5 Z"/></g>
<g><path style="opacity:1" fill="#a28827" d="M 170.5,201.5 C 172.025,212.631 172.691,223.964 172.5,235.5C 171.251,224.354 170.584,213.02 170.5,201.5 Z"/></g>
<g><path style="opacity:1" fill="#907a23" d="M 148.5,256.5 C 148.277,260.162 147.277,263.495 145.5,266.5C 145.723,262.838 146.723,259.505 148.5,256.5 Z"/></g>
<g><path style="opacity:0.279" fill="#e8e8e8" d="M 179.5,263.5 C 177.989,271.547 176.155,279.547 174,287.5C 169.099,287.917 164.932,286.25 161.5,282.5C 166.113,274.868 170.779,267.201 175.5,259.5C 176.274,258.289 177.107,258.289 178,259.5C 178.791,260.745 179.291,262.078 179.5,263.5 Z"/></g>
<g><path style="opacity:0.29" fill="#eaeaea" d="M 139.5,274.5 C 138.167,278.5 136.833,282.5 135.5,286.5C 125.375,281.642 114.708,279.809 103.5,281C 90.468,283.953 86.3013,291.453 91,303.5C 92.5793,305.041 94.4127,306.208 96.5,307C 105.018,309.562 113.685,311.396 122.5,312.5C 126.141,313.99 129.807,315.324 133.5,316.5C 132.393,321.081 132.227,325.748 133,330.5C 134.322,338.63 136.156,346.63 138.5,354.5C 127.375,363.166 114.708,366.332 100.5,364C 92.1088,363.07 84.1088,360.903 76.5,357.5C 75.3372,352.198 75.1705,346.864 76,341.5C 91.6845,354.342 108.851,356.842 127.5,349C 132.211,344.86 133.711,339.694 132,333.5C 131.654,331.152 130.487,329.319 128.5,328C 117.341,324.694 106.008,322.027 94.5,320C 77.2702,312.713 72.4369,300.546 80,283.5C 91.6072,271.382 105.774,267.215 122.5,271C 128.062,272.613 133.729,273.779 139.5,274.5 Z"/></g>
<g><path style="opacity:0.29" fill="#eaeaea" d="M 358.5,362.5 C 359.833,358.833 361.167,355.167 362.5,351.5C 371.464,353.841 380.464,354.008 389.5,352C 399.158,348.228 402.324,341.395 399,331.5C 397.457,329.622 395.624,328.122 393.5,327C 384.071,324.159 374.738,322.326 365.5,321.5C 364.689,317.475 362.689,313.975 359.5,311C 358.167,310.333 356.833,310.333 355.5,311C 354.154,312.669 352.487,313.836 350.5,314.5C 337.701,294.063 342.701,279.896 365.5,272C 380.492,269.033 394.992,270.533 409,276.5C 409.828,281.202 409.662,285.869 408.5,290.5C 395.346,281.449 381.012,278.949 365.5,283C 357.936,286.006 355.103,291.506 357,299.5C 358.061,302.562 359.894,305.062 362.5,307C 373.521,309.226 384.521,311.559 395.5,314C 412.846,322.038 417.013,334.538 408,351.5C 399.272,360.804 388.439,365.138 375.5,364.5C 369.729,364.533 364.063,363.866 358.5,362.5 Z"/></g>
<g><path style="opacity:0.278" fill="#f6f6f6" d="M 135.5,286.5 C 134.351,289.041 134.351,291.541 135.5,294C 144.883,297.738 154.217,301.571 163.5,305.5C 165.13,308.276 165.797,311.276 165.5,314.5C 159.716,314.559 154.716,316.559 150.5,320.5C 146.766,316.758 142.766,313.425 138.5,310.5C 137.558,310.608 136.725,310.941 136,311.5C 135.626,313.491 134.793,315.158 133.5,316.5C 129.807,315.324 126.141,313.99 122.5,312.5C 113.685,311.396 105.018,309.562 96.5,307C 94.4127,306.208 92.5793,305.041 91,303.5C 86.3013,291.453 90.468,283.953 103.5,281C 114.708,279.809 125.375,281.642 135.5,286.5 Z"/></g>
<g><path style="opacity:0.998" fill="#19170f" d="M 97.5,175.5 C 101.426,176.552 105.426,177.218 109.5,177.5C 128.019,181.963 146.019,187.963 163.5,195.5C 162.662,195.842 162.328,196.508 162.5,197.5C 147.242,191.526 131.575,186.526 115.5,182.5C 111.645,179.965 107.312,178.965 102.5,179.5C 92.2422,177.606 81.9089,176.273 71.5,175.5C 68.7131,174.523 65.7131,174.19 62.5,174.5C 62.2627,175.791 62.596,176.791 63.5,177.5C 71.8507,199.846 81.8507,221.513 93.5,242.5C 112.517,243.285 131.517,244.285 150.5,245.5C 149.833,249.167 149.167,252.833 148.5,256.5C 146.723,259.505 145.723,262.838 145.5,266.5C 142.695,274.393 140.528,282.393 139,290.5C 145.991,293.72 153.158,296.554 160.5,299C 163.726,300.106 166.393,301.939 168.5,304.5C 169.298,304.043 169.631,303.376 169.5,302.5C 171.655,300.383 172.655,297.716 172.5,294.5C 172.67,293.178 172.337,292.011 171.5,291C 166.827,289.33 162.493,287.163 158.5,284.5C 159.778,284.218 160.778,283.551 161.5,282.5C 164.932,286.25 169.099,287.917 174,287.5C 176.155,279.547 177.989,271.547 179.5,263.5C 180.29,264.609 180.79,265.942 181,267.5C 181.601,265.641 182.434,265.308 183.5,266.5C 179.478,281.908 174.812,297.242 169.5,312.5C 169.608,313.442 169.941,314.275 170.5,315C 175.413,316.087 179.413,318.587 182.5,322.5C 182.167,322.833 181.833,323.167 181.5,323.5C 176.554,320.018 171.054,318.018 165,317.5C 159.335,317.58 155.168,320.08 152.5,325C 154.453,328.405 156.287,331.905 158,335.5C 158.667,337.833 158.667,340.167 158,342.5C 154.167,335.5 150.333,328.5 146.5,321.5C 145.641,320.226 144.974,320.392 144.5,322C 144.989,323.138 145.322,324.305 145.5,325.5C 145.954,327.741 145.954,329.741 145.5,331.5C 144.833,330.833 144.167,330.167 143.5,329.5C 142.014,324.556 140.68,319.556 139.5,314.5C 139.167,315.333 138.833,316.167 138.5,317C 139.69,321.117 140.69,325.284 141.5,329.5C 141.457,330.416 141.124,331.083 140.5,331.5C 139.833,331.5 139.5,331.167 139.5,330.5C 138.928,329.027 138.095,327.693 137,326.5C 137.013,331.391 137.846,336.057 139.5,340.5C 142.028,349.585 144.861,358.585 148,367.5C 151.041,374.411 155.207,380.577 160.5,386C 161.635,386.749 162.635,386.583 163.5,385.5C 164.125,379.854 164.792,374.187 165.5,368.5C 166.086,368.709 166.586,369.043 167,369.5C 167.499,374.823 167.666,380.156 167.5,385.5C 183.83,388.205 200.164,387.872 216.5,384.5C 202.525,363.769 191.691,341.435 184,317.5C 183.182,314.773 183.348,312.106 184.5,309.5C 188.417,320.079 192.25,330.746 196,341.5C 202.814,354.462 210.148,367.128 218,379.5C 220.006,382.981 219.84,386.315 217.5,389.5C 218.831,390.166 220.331,390.166 222,389.5C 223.365,389.844 224.532,390.511 225.5,391.5C 227.833,388.833 230.167,388.833 232.5,391.5C 234.429,390.62 236.263,389.62 238,388.5C 240.951,392.534 243.784,392.367 246.5,388C 247.899,387.405 249.232,387.572 250.5,388.5C 249.871,361.381 246.537,334.381 240.5,307.5C 240.285,303.982 241.119,303.649 243,306.5C 244.755,313.964 246.755,321.298 249,328.5C 250.034,323.242 251.534,318.242 253.5,313.5C 254.368,316.327 254.368,319.327 253.5,322.5C 252.26,328.961 251.26,335.461 250.5,342C 252.106,355.764 252.939,369.598 253,383.5C 253.465,384.931 254.299,386.097 255.5,387C 259.108,385.71 261.775,386.877 263.5,390.5C 264.386,389.675 264.719,388.675 264.5,387.5C 265.873,387.343 267.207,387.51 268.5,388C 271.738,391.534 273.404,390.701 273.5,385.5C 274.833,386.833 276.167,388.167 277.5,389.5C 277.669,387.883 278.003,386.216 278.5,384.5C 279.741,387.144 281.741,387.977 284.5,387C 282.594,385.144 281.76,382.977 282,380.5C 289.276,367.952 295.442,354.952 300.5,341.5C 302.655,339.383 303.655,336.716 303.5,333.5C 306.358,319.552 308.691,305.552 310.5,291.5C 310.833,294.833 311.167,298.167 311.5,301.5C 309.711,329.699 301.211,355.699 286,379.5C 285.235,381.066 285.402,382.399 286.5,383.5C 291.823,384.166 297.323,384.499 303,384.5C 310.734,384.714 318.234,384.047 325.5,382.5C 329.458,383.428 332.125,382.094 333.5,378.5C 335.188,380.029 336.521,381.863 337.5,384C 338.833,384.667 340.167,384.667 341.5,384C 351.486,371.549 357.486,357.382 359.5,341.5C 361.019,338.474 361.685,335.141 361.5,331.5C 361.414,322.326 360.747,322.326 359.5,331.5C 358.11,336.586 357.11,336.586 356.5,331.5C 357.46,325.851 357.627,320.185 357,314.5C 355.74,320.759 354.407,327.093 353,333.5C 352.692,334.308 352.192,334.975 351.5,335.5C 350.49,332.035 350.49,328.535 351.5,325C 351.167,323.833 350.833,322.667 350.5,321.5C 350.167,321.833 349.833,322.167 349.5,322.5C 345.893,331.32 342.893,340.32 340.5,349.5C 339.067,352.282 337.9,355.282 337,358.5C 336.43,353.39 336.93,348.39 338.5,343.5C 339.589,338.65 341.255,333.983 343.5,329.5C 341.146,326.479 338.479,323.812 335.5,321.5C 335.5,320.167 336.167,319.5 337.5,319.5C 339.628,321.403 341.961,323.069 344.5,324.5C 346.511,321.139 348.511,317.806 350.5,314.5C 352.487,313.836 354.154,312.669 355.5,311C 356.833,310.333 358.167,310.333 359.5,311C 362.689,313.975 364.689,317.475 365.5,321.5C 364.688,331.519 363.688,341.519 362.5,351.5C 361.167,355.167 359.833,358.833 358.5,362.5C 356.147,368.724 353.314,374.724 350,380.5C 347.833,384 345,386.833 341.5,389C 339.833,389.667 338.167,389.667 336.5,389C 334.562,387.128 332.229,386.295 329.5,386.5C 316.201,387.88 302.867,388.88 289.5,389.5C 289.023,390.478 288.357,391.311 287.5,392C 283.011,393.553 278.511,395.053 274,396.5C 271.942,395.888 270.109,394.888 268.5,393.5C 267.73,395.272 266.397,396.272 264.5,396.5C 262.167,395.167 259.833,393.833 257.5,392.5C 254.278,393.706 251.112,393.706 248,392.5C 246.104,394.53 243.937,396.197 241.5,397.5C 239.62,397.075 238.12,396.075 237,394.5C 235.532,395.628 233.865,396.294 232,396.5C 229.811,395.312 227.644,395.312 225.5,396.5C 223.896,396.061 222.396,395.394 221,394.5C 218.566,395.322 216.066,395.656 213.5,395.5C 213.5,393.833 213.5,392.167 213.5,390.5C 200.219,392.265 186.886,392.765 173.5,392C 171.129,391.265 168.795,390.432 166.5,389.5C 164.809,391.256 162.809,391.756 160.5,391C 155.618,387.786 151.785,383.619 149,378.5C 145.379,370.44 141.879,362.44 138.5,354.5C 136.156,346.63 134.322,338.63 133,330.5C 132.227,325.748 132.393,321.081 133.5,316.5C 134.793,315.158 135.626,313.491 136,311.5C 136.725,310.941 137.558,310.608 138.5,310.5C 142.766,313.425 146.766,316.758 150.5,320.5C 154.716,316.559 159.716,314.559 165.5,314.5C 165.797,311.276 165.13,308.276 163.5,305.5C 154.217,301.571 144.883,297.738 135.5,294C 134.351,291.541 134.351,289.041 135.5,286.5C 136.833,282.5 138.167,278.5 139.5,274.5C 142.248,266.346 144.248,258.013 145.5,249.5C 127.839,248.906 110.172,248.406 92.5,248C 77.4999,224.529 66.1666,199.362 58.5,172.5C 71.6358,171.969 84.6358,172.969 97.5,175.5 Z"/></g>
<g><path style="opacity:1" fill="#493e15" d="M 102.5,179.5 C 107.312,178.965 111.645,179.965 115.5,182.5C 111.015,181.66 106.681,180.66 102.5,179.5 Z"/></g>
<g><path style="opacity:1" fill="#5e4f17" d="M 71.5,175.5 C 68.3019,174.964 65.6353,175.631 63.5,177.5C 62.596,176.791 62.2627,175.791 62.5,174.5C 65.7131,174.19 68.7131,174.523 71.5,175.5 Z"/></g>
<g><path style="opacity:1" fill="#5e4f18" d="M 172.5,294.5 C 172.655,297.716 171.655,300.383 169.5,302.5C 170.129,299.603 171.129,296.936 172.5,294.5 Z"/></g>
<g><path style="opacity:1" fill="#635319" d="M 322.5,310.5 C 323.776,311.386 323.776,312.386 322.5,313.5C 320.55,314.372 318.55,315.039 316.5,315.5C 318.832,314.18 320.832,312.513 322.5,310.5 Z"/></g>
<g><path style="opacity:1" fill="#887321" d="M 253.5,313.5 C 253.56,312.957 253.893,312.624 254.5,312.5C 255.84,316.097 255.507,319.43 253.5,322.5C 254.368,319.327 254.368,316.327 253.5,313.5 Z"/></g>
<g><path style="opacity:1" fill="#a08727" d="M 143.5,329.5 C 142.842,330.398 142.176,331.398 141.5,332.5C 140.893,332.376 140.56,332.043 140.5,331.5C 141.124,331.083 141.457,330.416 141.5,329.5C 140.69,325.284 139.69,321.117 138.5,317C 138.833,316.167 139.167,315.333 139.5,314.5C 140.68,319.556 142.014,324.556 143.5,329.5 Z"/></g>
<g><path style="opacity:0.279" fill="#f6f6f6" d="M 362.5,351.5 C 363.688,341.519 364.688,331.519 365.5,321.5C 374.738,322.326 384.071,324.159 393.5,327C 395.624,328.122 397.457,329.622 399,331.5C 402.324,341.395 399.158,348.228 389.5,352C 380.464,354.008 371.464,353.841 362.5,351.5 Z"/></g>
<g><path style="opacity:1" fill="#6c5b1a" d="M 359.5,341.5 C 360.444,338.001 360.444,334.668 359.5,331.5C 360.747,322.326 361.414,322.326 361.5,331.5C 361.685,335.141 361.019,338.474 359.5,341.5 Z"/></g>
<g><path style="opacity:1" fill="#a78d29" d="M 139.5,330.5 C 138.988,333.632 138.988,336.965 139.5,340.5C 137.846,336.057 137.013,331.391 137,326.5C 138.095,327.693 138.928,329.027 139.5,330.5 Z"/></g>
<g><path style="opacity:1" fill="#927b23" d="M 145.5,325.5 C 146.533,326.912 147.199,328.578 147.5,330.5C 147.139,332.418 146.472,332.751 145.5,331.5C 145.954,329.741 145.954,327.741 145.5,325.5 Z"/></g>
<g><path style="opacity:1" fill="#5c4e17" d="M 303.5,333.5 C 303.655,336.716 302.655,339.383 300.5,341.5C 301.129,338.603 302.129,335.936 303.5,333.5 Z"/></g>
<g><path style="opacity:1" fill="#7f6b1f" d="M 338.5,343.5 C 336.93,348.39 336.43,353.39 337,358.5C 337.9,355.282 339.067,352.282 340.5,349.5C 340.041,352.877 339.374,356.211 338.5,359.5C 337.5,359.5 336.5,359.5 335.5,359.5C 334.932,353.743 335.932,348.41 338.5,343.5 Z"/></g>
<g><path style="opacity:1" fill="#7d691e" d="M 325.5,382.5 C 318.234,384.047 310.734,384.714 303,384.5C 297.323,384.499 291.823,384.166 286.5,383.5C 299.516,383.633 312.516,383.299 325.5,382.5 Z"/></g>
</svg>
