<svg xmlns="http://www.w3.org/2000/svg" xmlns:xlink="http://www.w3.org/1999/xlink" width="1080" zoomAndPan="magnify" viewBox="0 0 810 809.999993" height="1080" preserveAspectRatio="xMidYMid meet" version="1.0"><path fill="#000000" d="M 462.792969 13.960938 C 462.582031 13.9375 462.375 13.9375 462.171875 13.964844 C 461.933594 14 461.699219 14.078125 461.46875 14.175781 C 460.84375 14.296875 460.269531 14.578125 459.753906 15.042969 C 457.796875 16.816406 456.746094 20 455.753906 28.273438 C 455.742188 28.351562 455.734375 28.417969 455.726562 28.5 C 455.441406 30.898438 455.164062 33.644531 454.867188 36.976562 C 454.601562 39.984375 454.472656 50.546875 454.453125 63.558594 C 454.382812 71.007812 454.414062 79.03125 454.535156 87.4375 C 454.652344 104.058594 454.898438 120.28125 455.257812 128.28125 C 455.554688 134.925781 455.902344 141.519531 456.28125 148.007812 C 456.398438 150.371094 456.519531 152.550781 456.652344 154.492188 C 456.710938 155.410156 456.789062 156.375 456.855469 157.304688 C 459.183594 193.203125 462.542969 223.851562 465.394531 233.257812 C 465.410156 233.304688 465.414062 233.339844 465.425781 233.382812 C 465.453125 233.597656 465.488281 233.824219 465.507812 233.972656 C 465.429688 234.507812 464.679688 234.445312 462.523438 233.96875 C 447.113281 230.570312 412.714844 230.605469 382.765625 234.054688 C 360.835938 236.582031 328.074219 244.675781 316.933594 250.316406 L 315.941406 250.820312 C 314.941406 251.207031 314.070312 251.515625 313.4375 251.6875 C 312.664062 251.839844 312.089844 251.851562 311.613281 251.746094 L 309.394531 250.277344 C 304 246.710938 293.265625 240.875 281.929688 235.167969 C 280.660156 234.511719 279.410156 233.867188 278.296875 233.308594 C 274.40625 231.359375 270.355469 229.429688 266.171875 227.53125 C 262.386719 225.773438 258.730469 224.117188 255.523438 222.765625 C 206.894531 202.222656 147.699219 187.332031 98.5 183.265625 C 92.972656 182.808594 86.183594 182.585938 79.503906 182.546875 C 77.777344 182.496094 76.167969 182.464844 74.785156 182.46875 C 72.269531 182.46875 69.890625 182.546875 67.605469 182.664062 C 66.074219 182.707031 64.617188 182.769531 63.269531 182.851562 C 57.625 183.140625 53.382812 183.605469 52.152344 184.226562 C 51.316406 184.648438 50.636719 185.054688 50.085938 185.46875 C 48.785156 186.230469 48.136719 187.140625 48.136719 188.210938 C 48.136719 188.660156 48.300781 189.234375 48.597656 189.902344 C 48.777344 190.484375 49.046875 191.121094 49.414062 191.828125 C 50.257812 193.480469 53.125 196.804688 56.804688 200.625 C 59.714844 203.734375 63.144531 207.070312 66.792969 210.304688 C 70.105469 213.320312 73.34375 216.097656 75.921875 218.007812 C 84.214844 224.148438 101.230469 235.746094 101.945312 235.746094 C 102.238281 235.746094 103.664062 236.59375 105.117188 237.625 C 108.269531 239.871094 115.167969 243.867188 123.851562 248.613281 C 126.070312 249.957031 131.152344 252.648438 137.441406 255.878906 C 156.128906 265.691406 178.035156 276.53125 190.988281 282.09375 C 195.117188 283.867188 199.496094 285.695312 203.925781 287.527344 C 206.441406 288.609375 209.722656 289.949219 213.664062 291.503906 C 231.980469 298.886719 249.84375 305.601562 257.25 307.75 C 260.015625 308.554688 261.289062 309.066406 261.707031 309.671875 C 261.652344 310.179688 261.523438 310.957031 261.316406 311.96875 C 257.746094 322.351562 253.511719 349.835938 253.472656 363.527344 C 253.472656 364.285156 253.445312 365.003906 253.410156 365.671875 C 253.371094 366.054688 253.34375 366.296875 253.304688 366.625 C 253.0625 368.09375 252.78125 368.960938 252.453125 369.277344 C 251.921875 369.132812 250.933594 368.769531 249.65625 368.265625 C 248.042969 367.578125 245.949219 366.644531 243.726562 365.617188 C 239.214844 363.523438 234.546875 361.5 233.351562 361.125 C 232.160156 360.75 229.214844 359.554688 226.8125 358.464844 C 221.242188 355.941406 211.480469 352.28125 197.105469 347.324219 C 157.53125 333.679688 111.882812 323.050781 72.601562 318.332031 C 68.050781 317.785156 60.933594 317.203125 53.507812 316.695312 C 47.75 316.234375 42.070312 315.882812 36.503906 315.65625 C 33.878906 315.550781 31.808594 315.492188 29.992188 315.457031 C 25.875 315.335938 22.972656 315.335938 22.460938 315.53125 C 21.84375 315.769531 21.449219 316.246094 21.265625 317.039062 C 21.109375 317.402344 21.054688 317.835938 21.054688 318.355469 C 21.054688 318.367188 21.054688 318.386719 21.054688 318.394531 C 21.054688 318.410156 21.054688 318.421875 21.054688 318.4375 C 21.054688 318.808594 21.179688 319.460938 21.359375 320.242188 C 21.765625 322.636719 22.773438 326.089844 24.441406 331.019531 C 31.3125 351.339844 42.183594 377.730469 53.574219 402.59375 L 53.574219 402.597656 C 54 403.644531 55.15625 406.128906 56.652344 409.269531 C 66.21875 429.746094 75.929688 448.675781 83.773438 461.597656 C 86.589844 466.238281 88.054688 468.960938 89.636719 470.527344 C 89.984375 470.996094 90.25 471.316406 90.390625 471.402344 C 90.429688 471.425781 90.601562 471.449219 90.832031 471.476562 C 93.207031 472.914062 96.480469 472.476562 104.492188 472.113281 C 105.761719 472.054688 107.683594 472.023438 110.019531 472.007812 C 114.617188 472.074219 119.578125 472.128906 124.976562 472.160156 C 129.800781 472.191406 134.441406 472.246094 138.996094 472.308594 C 157.140625 472.660156 176.554688 473.238281 183.125 473.773438 C 185.046875 473.929688 190.453125 474.335938 195.140625 474.679688 C 196.25 474.761719 197.296875 474.855469 198.269531 474.953125 C 201.078125 475.316406 202.890625 475.699219 203.445312 476.09375 C 203.433594 476.425781 203.339844 477.015625 203.1875 477.773438 C 202.945312 478.640625 202.640625 479.695312 202.296875 480.820312 C 194.882812 504.894531 178.320312 562.789062 178.320312 564.632812 C 178.320312 564.800781 178.351562 564.964844 178.394531 565.125 C 178.371094 565.25 178.320312 565.457031 178.320312 565.5 C 178.320312 565.726562 178.660156 566.039062 179.332031 566.441406 C 181.054688 567.886719 185.34375 569.628906 194.921875 573.03125 C 210.832031 578.6875 230.917969 586.175781 235.714844 588.21875 C 235.875 588.304688 236.054688 588.394531 236.203125 588.484375 C 237.269531 589.113281 238.03125 589.84375 238.792969 591.203125 C 239.0625 591.734375 239.304688 592.300781 239.476562 592.867188 C 240.03125 594.671875 241.289062 598.214844 242.269531 600.742188 C 242.382812 601.027344 242.46875 601.269531 242.566406 601.527344 C 243.167969 603.527344 243.476562 604.878906 243.535156 605.914062 C 243.480469 606.542969 243.308594 607.144531 243.011719 607.859375 C 242.085938 610.089844 241.394531 610.453125 237.011719 611 C 234.277344 611.339844 231.375 612.097656 228.554688 613.128906 C 226.742188 613.714844 224.996094 614.472656 223.308594 615.402344 C 218.609375 617.792969 214.671875 620.804688 212.964844 623.683594 C 211.722656 624.753906 210.683594 625.503906 210.148438 625.683594 C 209.441406 624.914062 208.320312 623.453125 207.152344 621.730469 C 205.765625 619.679688 202.410156 615.734375 199.085938 612.164062 C 198.644531 611.683594 198.203125 611.214844 197.761719 610.761719 C 197.511719 610.5 197.253906 610.210938 197.007812 609.957031 C 190.910156 603.71875 189.574219 602.742188 187.003906 602.710938 C 186.992188 602.707031 186.96875 602.703125 186.957031 602.703125 C 186.945312 602.703125 186.929688 602.703125 186.914062 602.703125 C 186.902344 602.703125 186.890625 602.703125 186.878906 602.703125 C 186.839844 602.703125 186.808594 602.707031 186.773438 602.707031 C 186.757812 602.707031 186.746094 602.703125 186.734375 602.703125 C 186.671875 602.703125 186.613281 602.710938 186.550781 602.714844 C 183.015625 602.835938 181.039062 604.9375 180.324219 609.34375 C 180.066406 610.929688 179.355469 612.695312 178.636719 613.632812 C 178.390625 613.824219 178.148438 614.089844 177.910156 614.417969 C 176.292969 616.21875 175.335938 619.890625 175.011719 624.921875 C 174.902344 626.085938 174.828125 627.261719 174.828125 628.4375 C 174.828125 630.007812 174.902344 631.726562 175.011719 633.515625 C 175.554688 644.757812 178.046875 659.492188 182.335938 674.785156 C 183.550781 679.109375 185.09375 684.671875 185.765625 687.144531 C 187.730469 694.359375 191.253906 704.082031 195.257812 713.78125 C 196.386719 716.929688 198.574219 721.894531 201.175781 727.304688 C 204.339844 734.128906 207.488281 740.285156 210.175781 744.679688 C 218.242188 757.890625 224.78125 765.089844 231.328125 767.988281 C 235.765625 769.953125 238.5625 769.625 241.371094 766.816406 L 243.214844 764.972656 L 248.996094 766.859375 C 249.128906 766.902344 249.304688 766.949219 249.449219 766.996094 C 251.515625 767.816406 253.695312 768.425781 256.425781 768.867188 C 257.753906 769.171875 259.019531 769.445312 260.011719 769.609375 C 266.695312 770.707031 297.015625 770.6875 310.6875 769.574219 C 316.453125 769.105469 325.960938 768.460938 331.808594 768.144531 L 342.449219 767.570312 L 341.957031 771.214844 C 341.683594 773.257812 341.90625 774.855469 342.5625 776.015625 C 343.296875 777.449219 344.6875 778.179688 346.683594 778.203125 C 348.621094 778.28125 351.085938 777.714844 354.035156 776.445312 L 358.386719 774.574219 L 361.238281 777.683594 C 361.75 778.425781 362.296875 778.988281 362.886719 779.378906 C 363.828125 780.292969 364.601562 780.941406 364.816406 780.941406 C 365.894531 780.941406 369.195312 779.003906 371.148438 777.226562 L 372.140625 776.324219 C 372.539062 776.0625 372.847656 775.914062 373.105469 775.867188 C 373.277344 775.890625 373.445312 775.941406 373.617188 776.019531 L 375.832031 778.234375 C 379.046875 781.449219 380.097656 781.316406 386.699219 776.871094 L 391.035156 773.953125 L 391.613281 774.589844 L 393.980469 777.433594 C 398.296875 782.628906 400.96875 782.332031 407.417969 775.949219 L 411.269531 772.140625 C 411.929688 771.640625 412.484375 771.292969 412.941406 771.097656 L 416.617188 772.140625 C 418.714844 772.734375 420.277344 773.136719 421.59375 773.382812 L 424.632812 774.28125 L 426.742188 773.191406 C 427.675781 772.878906 428.679688 772.410156 429.9375 771.769531 L 434.554688 769.433594 L 439.457031 774.222656 C 439.582031 774.34375 439.695312 774.445312 439.820312 774.5625 C 440.859375 775.613281 441.863281 776.488281 442.828125 777.210938 C 448.121094 781.382812 451.226562 780.851562 452.785156 775.644531 C 452.945312 775.105469 453.082031 774.714844 453.234375 774.257812 C 453.59375 773.242188 453.9375 772.484375 454.136719 772.269531 C 454.40625 772.363281 457.011719 773.835938 460.199219 775.699219 C 463.488281 777.621094 466.746094 779.191406 467.4375 779.191406 C 469.121094 779.191406 471.886719 776.609375 471.886719 775.03125 C 471.886719 775.023438 471.886719 775.019531 471.886719 775.011719 C 472.265625 774.574219 472.667969 774.3125 473.023438 774.285156 C 473.152344 774.320312 473.265625 774.34375 473.414062 774.40625 C 474.257812 774.761719 477.023438 775.246094 479.566406 775.484375 C 484.089844 775.910156 484.207031 775.859375 485.21875 773.1875 C 485.574219 772.238281 485.851562 771.621094 486.257812 771.214844 C 486.296875 771.183594 486.335938 771.164062 486.375 771.136719 C 486.867188 770.863281 487.574219 770.664062 488.578125 770.511719 C 488.703125 770.5 488.8125 770.484375 488.953125 770.480469 C 488.957031 770.480469 488.957031 770.480469 488.964844 770.480469 C 489.300781 770.46875 489.664062 770.460938 490.074219 770.460938 C 490.085938 770.460938 490.089844 770.460938 490.101562 770.460938 C 490.265625 770.457031 490.398438 770.457031 490.574219 770.457031 C 490.875 770.457031 491.140625 770.429688 491.421875 770.417969 C 491.554688 770.410156 491.699219 770.40625 491.824219 770.398438 C 495.828125 770.113281 498.097656 768.46875 498.097656 765.734375 C 498.101562 764.601562 498.195312 764.167969 504.125 763.988281 L 511.453125 764.179688 C 519.246094 764.386719 528.890625 764.160156 539.078125 763.601562 C 552.261719 763.226562 561.722656 762.289062 578.480469 760.023438 L 588.589844 758.65625 L 590.253906 758.445312 L 590.429688 758.59375 L 592.457031 760.824219 C 594.582031 763.152344 596.917969 764.5625 599.476562 765.058594 C 599.511719 765.066406 599.550781 765.066406 599.585938 765.074219 C 602 765.515625 604.609375 765.15625 607.421875 763.980469 C 610.503906 762.691406 614.402344 759.09375 618.449219 754.101562 C 620.925781 751.128906 623.359375 747.699219 625.714844 743.855469 C 628.652344 739.171875 631.457031 734.015625 633.851562 728.738281 C 646.273438 701.394531 654.320312 666.230469 655.511719 641.339844 C 655.867188 636.972656 656.011719 633.65625 655.789062 632.929688 C 655.742188 632.777344 655.679688 632.363281 655.609375 631.839844 C 655.285156 621.921875 653.472656 614.632812 649.925781 611.710938 C 648.972656 610.925781 647.59375 609.082031 646.613281 607.355469 C 646.554688 606.5 645.980469 605.582031 645.15625 604.78125 C 644.386719 603.660156 643.636719 603.21875 642.316406 603.003906 C 641.949219 602.878906 641.582031 602.789062 641.222656 602.742188 C 641.167969 602.734375 641.113281 602.734375 641.058594 602.726562 C 640.972656 602.714844 640.882812 602.703125 640.800781 602.703125 C 640.789062 602.703125 640.773438 602.707031 640.761719 602.710938 C 640.738281 602.707031 640.710938 602.703125 640.683594 602.703125 C 640.324219 602.703125 639.953125 602.757812 639.582031 602.855469 C 638.054688 603.003906 637.050781 603.746094 635.179688 605.726562 C 634.628906 606.3125 634.058594 606.832031 633.515625 607.261719 C 633.046875 607.601562 632.589844 607.917969 632.179688 608.15625 C 631.722656 608.398438 631.347656 608.503906 631.132812 608.421875 C 630.1875 608.058594 628.898438 608.742188 627.386719 610.308594 C 626.375 611.261719 625.273438 612.699219 624.035156 614.679688 C 622.507812 617.023438 620.863281 619.949219 619.167969 623.40625 C 616.839844 628.148438 615.101562 631.621094 614.414062 632.921875 C 614.160156 633.351562 613.914062 633.757812 613.769531 633.9375 C 613.296875 633.710938 610.886719 631.503906 608.070312 628.707031 C 598.175781 618.871094 588.054688 611.964844 581.085938 610.289062 C 579.511719 609.910156 578.253906 608.441406 576.671875 605.140625 C 575.453125 602.597656 571.476562 594.621094 567.828125 587.414062 C 555.464844 562.972656 548.332031 540.820312 546.589844 521.449219 C 546.308594 518.324219 545.875 514.09375 545.625 512.046875 C 545.527344 511.25 545.472656 510.628906 545.488281 510.054688 C 545.617188 509.226562 545.839844 508.515625 546.148438 507.835938 C 546.96875 506.453125 548.675781 504.636719 552.011719 501.128906 C 555.773438 497.167969 560.214844 492.15625 561.875 489.996094 C 563.535156 487.832031 565.113281 485.867188 565.386719 485.625 C 567.039062 484.160156 571.148438 477.605469 575.179688 470.449219 C 577.226562 467.011719 579.027344 463.640625 580.566406 460.394531 C 582.269531 457.019531 583.65625 454.027344 584.390625 451.988281 C 586.550781 446.019531 588.191406 435.464844 588.011719 428.703125 C 587.675781 416 585.6875 407.667969 577.613281 385.148438 C 569.773438 363.277344 567.53125 355.351562 562.664062 332.289062 C 559.027344 315.054688 556.390625 306.371094 550.738281 292.972656 L 546.5 282.9375 C 546.375 281.675781 546.28125 280.0625 546.226562 277.976562 L 546.203125 276.738281 C 546.171875 274.992188 546.148438 273.066406 546.148438 270.691406 C 546.148438 266.371094 546.058594 261.617188 545.898438 256.695312 C 545.792969 252.089844 545.65625 247.84375 545.457031 243.753906 C 544.1875 211.78125 540.410156 186.3125 532.203125 152.617188 C 520.363281 104.003906 497.628906 52.988281 475.433594 25.21875 C 471.011719 19.683594 467.539062 16.28125 464.808594 14.863281 C 464.011719 14.320312 463.367188 14.023438 462.796875 13.960938 Z M 265.535156 491.445312 L 272.597656 505.566406 L 259.359375 559.402344 L 231.113281 545.28125 Z M 265.535156 491.445312 " fill-opacity="1" fill-rule="nonzero"/><path fill="#ffd73e" d="M 365.316406 780.851562 C 365.117188 780.910156 364.949219 780.9375 364.8125 780.9375 C 364.8125 780.9375 364.8125 780.941406 364.816406 780.941406 C 364.949219 780.941406 365.117188 780.910156 365.316406 780.855469 Z M 365.316406 780.851562 " fill-opacity="1" fill-rule="nonzero"/><path fill="#ffd73e" d="M 402.3125 780.167969 C 401.734375 780.496094 401.191406 780.734375 400.667969 780.878906 C 401.191406 780.734375 401.734375 780.496094 402.3125 780.167969 Z M 402.3125 780.167969 " fill-opacity="1" fill-rule="nonzero"/><path fill="#ffd73e" d="M 381.898438 779.804688 C 381.171875 780.148438 380.550781 780.355469 379.992188 780.425781 C 380.550781 780.355469 381.171875 780.148438 381.898438 779.804688 Z M 381.898438 779.804688 " fill-opacity="1" fill-rule="nonzero"/><path fill="#ffd73e" d="M 377.460938 779.683594 C 377.796875 779.921875 378.117188 780.109375 378.445312 780.238281 C 378.117188 780.109375 377.796875 779.921875 377.460938 779.683594 Z M 377.460938 779.683594 " fill-opacity="1" fill-rule="nonzero"/><path fill="#ffd73e" d="M 395.53125 779.125 C 396.03125 779.597656 396.515625 779.988281 396.992188 780.289062 C 396.515625 779.988281 396.03125 779.597656 395.53125 779.125 Z M 395.53125 779.125 " fill-opacity="1" fill-rule="nonzero"/><path fill="#ffd73e" d="M 467.0625 779.121094 C 467.222656 779.167969 467.351562 779.191406 467.4375 779.191406 C 467.542969 779.191406 467.652344 779.179688 467.765625 779.164062 C 467.652344 779.179688 467.539062 779.191406 467.433594 779.191406 C 467.347656 779.191406 467.222656 779.167969 467.0625 779.121094 Z M 467.0625 779.121094 " fill-opacity="1" fill-rule="nonzero"/><path fill="#ffd73e" d="M 469.585938 778.292969 C 469.097656 778.648438 468.585938 778.929688 468.109375 779.078125 C 468.585938 778.929688 469.097656 778.648438 469.585938 778.292969 Z M 469.585938 778.292969 " fill-opacity="1" fill-rule="nonzero"/><path fill="#ffd73e" d="M 348.234375 778.140625 C 347.683594 778.203125 347.164062 778.222656 346.683594 778.203125 C 346.433594 778.199219 346.195312 778.1875 345.964844 778.164062 C 346.195312 778.1875 346.433594 778.203125 346.683594 778.203125 C 347.167969 778.222656 347.683594 778.203125 348.234375 778.140625 Z M 348.234375 778.140625 " fill-opacity="1" fill-rule="nonzero"/><path fill="#ffd73e" d="M 350.921875 777.578125 C 350.277344 777.765625 349.664062 777.910156 349.082031 778.015625 C 349.664062 777.910156 350.277344 777.765625 350.921875 777.578125 Z M 350.921875 777.578125 " fill-opacity="1" fill-rule="nonzero"/><path fill="#ffd73e" d="M 352.949219 776.886719 C 352.242188 777.160156 351.566406 777.390625 350.921875 777.578125 C 351.566406 777.390625 352.242188 777.160156 352.949219 776.886719 Z M 352.949219 776.886719 " fill-opacity="1" fill-rule="nonzero"/><path fill="#ffd73e" d="M 372.675781 776.015625 C 372.515625 776.089844 372.335938 776.191406 372.136719 776.324219 L 371.148438 777.222656 C 370.171875 778.113281 368.855469 779.042969 367.652344 779.75 C 368.855469 779.042969 370.171875 778.113281 371.148438 777.226562 L 372.140625 776.324219 C 372.339844 776.195312 372.515625 776.089844 372.675781 776.015625 Z M 372.675781 776.015625 " fill-opacity="1" fill-rule="nonzero"/><path fill="#ffd73e" d="M 373.105469 775.867188 C 372.976562 775.890625 372.835938 775.941406 372.675781 776.015625 C 372.835938 775.941406 372.976562 775.890625 373.105469 775.867188 C 373.277344 775.890625 373.445312 775.941406 373.617188 776.019531 L 373.613281 776.019531 C 373.445312 775.941406 373.273438 775.890625 373.105469 775.867188 Z M 373.105469 775.867188 " fill-opacity="1" fill-rule="nonzero"/><path fill="#ffd73e" d="M 483.414062 775.589844 C 483.101562 775.664062 482.710938 775.691406 482.214844 775.679688 C 482.710938 775.691406 483.101562 775.664062 483.414062 775.589844 Z M 483.414062 775.589844 " fill-opacity="1" fill-rule="nonzero"/><path fill="#ffd73e" d="M 483.960938 775.367188 C 483.804688 775.46875 483.625 775.539062 483.417969 775.589844 C 483.628906 775.539062 483.804688 775.46875 483.960938 775.367188 Z M 483.960938 775.367188 " fill-opacity="1" fill-rule="nonzero"/><path fill="#ffd73e" d="M 484.371094 774.988281 C 484.308594 775.066406 484.246094 775.136719 484.175781 775.203125 C 484.246094 775.136719 484.308594 775.066406 484.371094 774.988281 Z M 484.371094 774.988281 " fill-opacity="1" fill-rule="nonzero"/><path fill="#ffd73e" d="M 472.171875 774.71875 C 472.078125 774.804688 471.980469 774.902344 471.886719 775.011719 C 471.886719 775.019531 471.886719 775.023438 471.886719 775.03125 C 471.886719 775.128906 471.875 775.234375 471.855469 775.339844 C 471.875 775.234375 471.886719 775.132812 471.886719 775.03125 C 471.886719 775.027344 471.886719 775.019531 471.886719 775.011719 C 471.984375 774.902344 472.078125 774.804688 472.171875 774.71875 Z M 472.171875 774.71875 " fill-opacity="1" fill-rule="nonzero"/><path fill="#ffd73e" d="M 474.371094 774.691406 C 475.582031 774.976562 477.519531 775.28125 479.367188 775.460938 C 477.519531 775.28125 475.582031 774.980469 474.371094 774.691406 Z M 474.371094 774.691406 " fill-opacity="1" fill-rule="nonzero"/><path fill="#ffd73e" d="M 358.386719 774.570312 L 354.035156 776.445312 C 353.664062 776.601562 353.304688 776.75 352.953125 776.886719 C 353.304688 776.75 353.667969 776.605469 354.035156 776.445312 L 358.386719 774.574219 Z M 358.386719 774.570312 " fill-opacity="1" fill-rule="nonzero"/><path fill="#ffd73e" d="M 391.03125 773.953125 L 386.699219 776.871094 C 385.875 777.425781 385.136719 777.914062 384.46875 778.339844 C 385.136719 777.914062 385.875 777.429688 386.699219 776.871094 L 391.035156 773.953125 Z M 391.03125 773.953125 " fill-opacity="1" fill-rule="nonzero"/><path fill="#ffd73e" d="M 452.472656 776.566406 C 452.144531 777.429688 451.757812 778.132812 451.3125 778.671875 C 451.757812 778.132812 452.144531 777.429688 452.472656 776.566406 Z M 452.472656 776.566406 " fill-opacity="1" fill-rule="nonzero"/><path fill="#ffd73e" d="M 453.742188 772.960938 C 453.585938 773.308594 453.410156 773.75 453.230469 774.257812 C 453.082031 774.714844 452.945312 775.105469 452.78125 775.644531 C 452.683594 775.96875 452.582031 776.277344 452.472656 776.566406 C 452.582031 776.277344 452.6875 775.96875 452.785156 775.644531 C 452.945312 775.105469 453.082031 774.714844 453.234375 774.257812 C 453.414062 773.75 453.585938 773.308594 453.742188 772.960938 Z M 453.742188 772.960938 " fill-opacity="1" fill-rule="nonzero"/><path fill="#ffd73e" d="M 454.136719 772.265625 C 454.085938 772.320312 454.027344 772.410156 453.960938 772.527344 C 454.027344 772.410156 454.085938 772.320312 454.136719 772.269531 C 454.136719 772.269531 454.136719 772.265625 454.136719 772.265625 Z M 454.136719 772.265625 " fill-opacity="1" fill-rule="nonzero"/><path fill="#ffd73e" d="M 485.71875 771.996094 C 485.554688 772.320312 485.394531 772.710938 485.214844 773.1875 C 485.089844 773.519531 484.976562 773.8125 484.871094 774.070312 C 484.976562 773.8125 485.089844 773.519531 485.21875 773.1875 C 485.394531 772.710938 485.554688 772.320312 485.71875 771.996094 Z M 485.71875 771.996094 " fill-opacity="1" fill-rule="nonzero"/><path fill="#ffd73e" d="M 486.257812 771.214844 C 486.050781 771.417969 485.882812 771.671875 485.71875 771.996094 C 485.882812 771.671875 486.054688 771.417969 486.257812 771.214844 Z M 486.257812 771.214844 " fill-opacity="1" fill-rule="nonzero"/><path fill="#ffd73e" d="M 488.574219 770.511719 C 487.824219 770.625 487.238281 770.765625 486.785156 770.945312 C 487.238281 770.765625 487.824219 770.625 488.574219 770.511719 Z M 488.574219 770.511719 " fill-opacity="1" fill-rule="nonzero"/><path fill="#ffd73e" d="M 490.054688 770.460938 C 489.652344 770.460938 489.292969 770.46875 488.964844 770.480469 C 488.957031 770.480469 488.953125 770.480469 488.949219 770.480469 C 488.8125 770.488281 488.703125 770.5 488.578125 770.511719 C 488.703125 770.5 488.8125 770.484375 488.953125 770.480469 C 488.957031 770.480469 488.957031 770.480469 488.964844 770.480469 C 489.292969 770.46875 489.652344 770.460938 490.054688 770.460938 Z M 490.054688 770.460938 " fill-opacity="1" fill-rule="nonzero"/><path fill="#ffd73e" d="M 493.242188 770.226562 C 492.796875 770.304688 492.324219 770.359375 491.824219 770.394531 C 491.695312 770.40625 491.550781 770.410156 491.421875 770.417969 C 491.550781 770.410156 491.699219 770.40625 491.824219 770.398438 C 492.324219 770.363281 492.796875 770.304688 493.242188 770.226562 Z M 493.242188 770.226562 " fill-opacity="1" fill-rule="nonzero"/><path fill="#ffd73e" d="M 406.25 777.074219 C 405.5 777.777344 404.804688 778.386719 404.152344 778.902344 C 404.804688 778.386719 405.5 777.777344 406.25 777.074219 Z M 406.25 777.074219 " fill-opacity="1" fill-rule="nonzero"/><path fill="#ffd73e" d="M 412.179688 771.503906 C 411.902344 771.675781 411.597656 771.886719 411.265625 772.136719 L 407.417969 775.949219 C 407.011719 776.347656 406.625 776.722656 406.25 777.074219 C 406.625 776.722656 407.015625 776.347656 407.417969 775.949219 L 411.269531 772.140625 C 411.597656 771.890625 411.902344 771.675781 412.179688 771.503906 Z M 412.179688 771.503906 " fill-opacity="1" fill-rule="nonzero"/><path fill="#ffd73e" d="M 434.550781 769.433594 L 429.9375 771.769531 C 428.675781 772.410156 427.671875 772.878906 426.742188 773.191406 L 424.632812 774.277344 L 421.589844 773.382812 C 420.277344 773.136719 418.714844 772.734375 416.617188 772.136719 L 412.9375 771.097656 C 412.710938 771.195312 412.457031 771.332031 412.179688 771.503906 C 412.457031 771.332031 412.710938 771.195312 412.941406 771.097656 L 416.617188 772.140625 C 418.714844 772.734375 420.277344 773.136719 421.59375 773.382812 L 424.632812 774.28125 L 426.742188 773.191406 C 427.671875 772.878906 428.679688 772.410156 429.9375 771.773438 Z M 434.550781 769.433594 " fill-opacity="1" fill-rule="nonzero"/><path fill="#ffd73e" d="M 496.839844 768.675781 C 496.484375 769 496.058594 769.28125 495.566406 769.515625 C 496.058594 769.28125 496.484375 769 496.839844 768.675781 Z M 496.839844 768.675781 " fill-opacity="1" fill-rule="nonzero"/><path fill="#ffd73e" d="M 234.375 769.027344 C 234.839844 769.128906 235.285156 769.191406 235.714844 769.21875 C 235.285156 769.191406 234.839844 769.128906 234.375 769.027344 Z M 234.375 769.027344 " fill-opacity="1" fill-rule="nonzero"/><path fill="#ffd73e" d="M 233.09375 768.671875 C 233.535156 768.816406 233.964844 768.9375 234.375 769.027344 C 233.964844 768.9375 233.535156 768.816406 233.09375 768.671875 Z M 233.09375 768.671875 " fill-opacity="1" fill-rule="nonzero"/><path fill="#ffd73e" d="M 261.53125 769.800781 C 262.714844 769.921875 264.234375 770.023438 266 770.109375 C 264.234375 770.023438 262.714844 769.921875 261.53125 769.800781 Z M 261.53125 769.800781 " fill-opacity="1" fill-rule="nonzero"/><path fill="#ffd73e" d="M 254.835938 768.570312 C 255.351562 768.675781 255.871094 768.777344 256.425781 768.867188 C 257.753906 769.171875 259.019531 769.445312 260.011719 769.609375 C 260.429688 769.675781 260.9375 769.742188 261.53125 769.800781 C 260.9375 769.742188 260.429688 769.675781 260.011719 769.605469 C 259.019531 769.441406 257.753906 769.171875 256.425781 768.867188 C 255.871094 768.777344 255.351562 768.675781 254.835938 768.570312 Z M 254.835938 768.570312 " fill-opacity="1" fill-rule="nonzero"/><path fill="#ffd73e" d="M 321.214844 768.800781 C 317.386719 769.058594 313.570312 769.335938 310.6875 769.570312 C 308.976562 769.710938 307.007812 769.832031 304.859375 769.9375 C 307.007812 769.832031 308.976562 769.714844 310.6875 769.574219 C 313.570312 769.339844 317.386719 769.058594 321.214844 768.800781 Z M 321.214844 768.800781 " fill-opacity="1" fill-rule="nonzero"/><path fill="#ffd73e" d="M 342.445312 767.570312 L 331.808594 768.144531 C 328.882812 768.300781 325.046875 768.542969 321.214844 768.800781 C 325.046875 768.542969 328.886719 768.304688 331.808594 768.144531 Z M 342.445312 767.570312 " fill-opacity="1" fill-rule="nonzero"/><path fill="#ffd73e" d="M 228.867188 766.695312 C 229.6875 767.195312 230.507812 767.625 231.324219 767.988281 C 230.507812 767.625 229.6875 767.195312 228.867188 766.695312 Z M 228.867188 766.695312 " fill-opacity="1" fill-rule="nonzero"/><path fill="#ffd73e" d="M 498.113281 765.339844 C 498.101562 765.460938 498.097656 765.589844 498.097656 765.734375 C 498.097656 765.902344 498.089844 766.070312 498.070312 766.234375 C 498.089844 766.070312 498.097656 765.90625 498.097656 765.734375 C 498.097656 765.59375 498.101562 765.460938 498.113281 765.339844 Z M 498.113281 765.339844 " fill-opacity="1" fill-rule="nonzero"/><path fill="#ffd73e" d="M 238.128906 768.9375 C 237.75 769.0625 237.363281 769.144531 236.960938 769.191406 C 237.363281 769.144531 237.75 769.0625 238.128906 768.9375 Z M 238.128906 768.9375 " fill-opacity="1" fill-rule="nonzero"/><path fill="#ffd73e" d="M 240.84375 767.3125 C 239.964844 768.09375 239.078125 768.632812 238.128906 768.9375 C 239.078125 768.632812 239.964844 768.09375 240.84375 767.3125 Z M 240.84375 767.3125 " fill-opacity="1" fill-rule="nonzero"/><path fill="#ffd73e" d="M 243.214844 764.972656 L 241.371094 766.816406 C 241.195312 766.992188 241.019531 767.160156 240.84375 767.3125 C 241.019531 767.160156 241.195312 766.992188 241.371094 766.816406 L 243.214844 764.972656 L 248.996094 766.859375 C 249.128906 766.902344 249.304688 766.949219 249.449219 766.996094 C 249.449219 766.996094 249.445312 766.992188 249.445312 766.992188 C 249.304688 766.949219 249.128906 766.902344 248.992188 766.855469 Z M 243.214844 764.972656 " fill-opacity="1" fill-rule="nonzero"/><path fill="#ffd73e" d="M 599.585938 765.074219 C 600.792969 765.296875 602.046875 765.316406 603.355469 765.136719 C 602.046875 765.316406 600.792969 765.296875 599.585938 765.074219 Z M 599.585938 765.074219 " fill-opacity="1" fill-rule="nonzero"/><path fill="#ffd73e" d="M 598.527344 764.828125 C 598.839844 764.917969 599.15625 764.996094 599.476562 765.058594 C 599.511719 765.066406 599.550781 765.066406 599.585938 765.074219 C 599.550781 765.066406 599.511719 765.0625 599.476562 765.058594 C 599.15625 764.996094 598.839844 764.917969 598.527344 764.828125 Z M 598.527344 764.828125 " fill-opacity="1" fill-rule="nonzero"/><path fill="#ffd73e" d="M 498.441406 764.730469 C 498.386719 764.773438 498.339844 764.816406 498.300781 764.863281 C 498.339844 764.816406 498.386719 764.773438 498.441406 764.730469 Z M 498.441406 764.730469 " fill-opacity="1" fill-rule="nonzero"/><path fill="#ffd73e" d="M 500.679688 764.175781 C 499.417969 764.300781 498.773438 764.480469 498.441406 764.730469 C 498.773438 764.480469 499.417969 764.300781 500.679688 764.175781 Z M 500.679688 764.175781 " fill-opacity="1" fill-rule="nonzero"/><path fill="#ffd73e" d="M 504.125 763.984375 C 503.382812 764.007812 502.734375 764.035156 502.164062 764.066406 C 502.734375 764.035156 503.386719 764.007812 504.125 763.988281 L 511.453125 764.179688 C 515.347656 764.28125 519.707031 764.277344 524.367188 764.175781 C 519.707031 764.277344 515.347656 764.28125 511.449219 764.179688 Z M 504.125 763.984375 " fill-opacity="1" fill-rule="nonzero"/><path fill="#ffd73e" d="M 607.421875 763.980469 C 606.71875 764.273438 606.027344 764.519531 605.351562 764.710938 C 606.027344 764.519531 606.71875 764.273438 607.421875 763.980469 Z M 607.421875 763.980469 " fill-opacity="1" fill-rule="nonzero"/><path fill="#ffd73e" d="M 543.867188 763.433594 C 542.3125 763.5 540.722656 763.554688 539.074219 763.601562 C 536.527344 763.742188 534.015625 763.859375 531.558594 763.957031 C 534.015625 763.859375 536.53125 763.742188 539.078125 763.601562 C 540.726562 763.554688 542.3125 763.5 543.867188 763.433594 Z M 543.867188 763.433594 " fill-opacity="1" fill-rule="nonzero"/><path fill="#ffd73e" d="M 594.089844 762.398438 C 594.925781 763.097656 595.792969 763.671875 596.691406 764.113281 C 595.792969 763.671875 594.925781 763.097656 594.089844 762.398438 Z M 594.089844 762.398438 " fill-opacity="1" fill-rule="nonzero"/><path fill="#ffd73e" d="M 222.609375 761.570312 C 223.035156 762.007812 223.460938 762.425781 223.882812 762.824219 C 223.460938 762.425781 223.035156 762.007812 222.609375 761.570312 Z M 222.609375 761.570312 " fill-opacity="1" fill-rule="nonzero"/><path fill="#ffd73e" d="M 567.105469 761.484375 C 560.207031 762.308594 554.445312 762.851562 548.4375 763.203125 C 554.445312 762.851562 560.207031 762.308594 567.105469 761.484375 Z M 567.105469 761.484375 " fill-opacity="1" fill-rule="nonzero"/><path fill="#ffd73e" d="M 612.574219 760.429688 C 611.640625 761.269531 610.738281 761.996094 609.878906 762.59375 C 610.738281 761.996094 611.640625 761.269531 612.574219 760.429688 Z M 612.574219 760.429688 " fill-opacity="1" fill-rule="nonzero"/><path fill="#ffd73e" d="M 590.253906 758.441406 L 588.585938 758.652344 L 578.476562 760.019531 C 576.382812 760.304688 574.402344 760.566406 572.515625 760.8125 C 574.402344 760.566406 576.382812 760.304688 578.480469 760.023438 L 588.585938 758.65625 L 590.253906 758.445312 Z M 590.253906 758.441406 " fill-opacity="1" fill-rule="nonzero"/><path fill="#ffd73e" d="M 620.296875 751.789062 C 619.683594 752.589844 619.066406 753.359375 618.449219 754.101562 C 617.941406 754.726562 617.4375 755.328125 616.9375 755.90625 C 617.4375 755.328125 617.945312 754.726562 618.449219 754.101562 C 619.070312 753.359375 619.683594 752.589844 620.296875 751.789062 Z M 620.296875 751.789062 " fill-opacity="1" fill-rule="nonzero"/><path fill="#ffd73e" d="M 653.371094 661.652344 C 652.8125 665.265625 652.15625 668.964844 651.410156 672.722656 C 652.15625 668.964844 652.8125 665.265625 653.371094 661.652344 Z M 653.371094 661.652344 " fill-opacity="1" fill-rule="nonzero"/><path fill="#ffd73e" d="M 655.605469 631.84375 C 655.675781 632.363281 655.738281 632.777344 655.785156 632.929688 C 655.898438 633.292969 655.917969 634.304688 655.867188 635.769531 C 655.917969 634.304688 655.898438 633.292969 655.789062 632.929688 C 655.742188 632.777344 655.675781 632.363281 655.605469 631.84375 Z M 655.605469 631.84375 " fill-opacity="1" fill-rule="nonzero"/><path fill="#ffd73e" d="M 209.546875 624.984375 C 209.769531 625.257812 209.96875 625.492188 210.148438 625.683594 C 209.972656 625.492188 209.769531 625.257812 209.546875 624.984375 Z M 209.546875 624.984375 " fill-opacity="1" fill-rule="nonzero"/><path fill="#ffd73e" d="M 654.640625 622.101562 C 654.796875 622.941406 654.933594 623.816406 655.054688 624.730469 C 654.933594 623.816406 654.796875 622.941406 654.640625 622.101562 Z M 654.640625 622.101562 " fill-opacity="1" fill-rule="nonzero"/><path fill="#ffd73e" d="M 206.359375 620.664062 C 206.632812 621.03125 206.953125 621.4375 207.152344 621.730469 C 207.734375 622.59375 208.308594 623.386719 208.824219 624.0625 C 208.308594 623.386719 207.738281 622.59375 207.152344 621.730469 C 206.953125 621.4375 206.632812 621.03125 206.359375 620.664062 Z M 206.359375 620.664062 " fill-opacity="1" fill-rule="nonzero"/><path fill="#ffd73e" d="M 652.265625 614.695312 C 652.601562 615.320312 652.910156 616.007812 653.195312 616.75 C 652.910156 616.007812 652.601562 615.320312 652.265625 614.695312 Z M 652.265625 614.695312 " fill-opacity="1" fill-rule="nonzero"/><path fill="#ffd73e" d="M 650.570312 612.3125 C 650.984375 612.746094 651.375 613.242188 651.738281 613.804688 C 651.375 613.242188 650.984375 612.746094 650.570312 612.3125 Z M 650.570312 612.3125 " fill-opacity="1" fill-rule="nonzero"/><path fill="#ffd73e" d="M 578.578125 608.421875 C 578.769531 608.671875 578.960938 608.894531 579.152344 609.089844 C 578.960938 608.894531 578.769531 608.671875 578.578125 608.421875 Z M 578.578125 608.421875 " fill-opacity="1" fill-rule="nonzero"/><path fill="#ffd73e" d="M 194.933594 607.855469 C 195.558594 608.480469 196.242188 609.179688 197.003906 609.957031 C 197.25 610.210938 197.511719 610.5 197.761719 610.761719 C 198.203125 611.21875 198.644531 611.683594 199.085938 612.164062 C 200.746094 613.949219 202.417969 615.828125 203.84375 617.515625 C 202.417969 615.828125 200.75 613.949219 199.085938 612.164062 C 198.644531 611.683594 198.203125 611.21875 197.761719 610.761719 C 197.511719 610.5 197.253906 610.210938 197.007812 609.957031 C 196.246094 609.179688 195.558594 608.480469 194.933594 607.855469 Z M 194.933594 607.855469 " fill-opacity="1" fill-rule="nonzero"/><path fill="#ffd73e" d="M 646.496094 606.777344 C 646.558594 606.96875 646.597656 607.164062 646.613281 607.355469 C 646.597656 607.164062 646.558594 606.972656 646.496094 606.777344 Z M 646.496094 606.777344 " fill-opacity="1" fill-rule="nonzero"/><path fill="#ffd73e" d="M 236.949219 588.984375 C 237.183594 589.160156 237.402344 589.355469 237.613281 589.570312 C 237.402344 589.355469 237.183594 589.160156 236.949219 588.984375 Z M 236.949219 588.984375 " fill-opacity="1" fill-rule="nonzero"/><path fill="#ffd73e" d="M 207.332031 577.503906 C 215.722656 580.5625 223.941406 583.625 229.554688 585.78125 C 223.941406 583.625 215.722656 580.5625 207.332031 577.503906 Z M 207.332031 577.503906 " fill-opacity="1" fill-rule="nonzero"/><path fill="#ffd73e" d="M 184.179688 569 C 185.421875 569.523438 186.910156 570.105469 188.6875 570.769531 C 186.910156 570.105469 185.421875 569.523438 184.179688 569 Z M 184.179688 569 " fill-opacity="1" fill-rule="nonzero"/><path fill="#ffd73e" d="M 181.148438 567.601562 C 181.941406 568.019531 182.9375 568.480469 184.179688 569 C 182.9375 568.480469 181.941406 568.019531 181.148438 567.601562 Z M 181.148438 567.601562 " fill-opacity="1" fill-rule="nonzero"/><path fill="#ffd73e" d="M 558.285156 566.4375 C 559.277344 568.902344 560.316406 571.390625 561.425781 573.910156 C 560.3125 571.390625 559.277344 568.902344 558.285156 566.4375 Z M 558.285156 566.4375 " fill-opacity="1" fill-rule="nonzero"/><path fill="#ffd73e" d="M 178.574219 565.902344 C 178.660156 565.980469 178.765625 566.066406 178.890625 566.15625 C 178.765625 566.066406 178.660156 565.980469 178.574219 565.902344 Z M 178.574219 565.902344 " fill-opacity="1" fill-rule="nonzero"/><path fill="#ffd73e" d="M 546.5 507.292969 C 546.367188 507.484375 546.25 507.664062 546.148438 507.835938 C 545.992188 508.175781 545.859375 508.523438 545.75 508.890625 C 545.859375 508.523438 545.996094 508.175781 546.148438 507.835938 C 546.253906 507.664062 546.367188 507.484375 546.5 507.292969 Z M 546.5 507.292969 " fill-opacity="1" fill-rule="nonzero"/><path fill="#ffd73e" d="M 554.90625 498.023438 C 553.933594 499.082031 552.949219 500.136719 552.011719 501.128906 C 551.175781 502.003906 550.445312 502.777344 549.800781 503.460938 C 550.445312 502.777344 551.175781 502.003906 552.011719 501.128906 C 552.953125 500.136719 553.933594 499.082031 554.90625 498.023438 Z M 554.90625 498.023438 " fill-opacity="1" fill-rule="nonzero"/><path fill="#ffd73e" d="M 564.148438 487.089844 C 563.511719 487.882812 562.699219 488.914062 561.871094 489.996094 C 561.457031 490.535156 560.867188 491.253906 560.160156 492.089844 C 560.867188 491.253906 561.457031 490.535156 561.875 489.996094 C 562.703125 488.914062 563.511719 487.882812 564.148438 487.089844 Z M 564.148438 487.089844 " fill-opacity="1" fill-rule="nonzero"/><path fill="#ffd73e" d="M 566.113281 484.847656 C 565.835938 485.179688 565.589844 485.441406 565.382812 485.625 C 565.246094 485.746094 564.785156 486.296875 564.148438 487.089844 C 564.785156 486.296875 565.25 485.746094 565.386719 485.625 C 565.589844 485.441406 565.835938 485.179688 566.113281 484.847656 Z M 566.113281 484.847656 " fill-opacity="1" fill-rule="nonzero"/><path fill="#ffd73e" d="M 568.144531 482.066406 C 567.363281 483.230469 566.671875 484.179688 566.113281 484.847656 C 566.671875 484.179688 567.363281 483.230469 568.144531 482.066406 Z M 568.144531 482.066406 " fill-opacity="1" fill-rule="nonzero"/><path fill="#ffd73e" d="M 200.1875 475.230469 C 201.332031 475.414062 202.214844 475.605469 202.796875 475.800781 C 202.214844 475.605469 201.332031 475.414062 200.1875 475.230469 Z M 200.1875 475.230469 " fill-opacity="1" fill-rule="nonzero"/><path fill="#ffd73e" d="M 176.007812 473.367188 C 179.035156 473.503906 181.484375 473.640625 183.125 473.773438 C 181.484375 473.640625 179.035156 473.503906 176.007812 473.367188 Z M 176.007812 473.367188 " fill-opacity="1" fill-rule="nonzero"/><path fill="#ffd73e" d="M 152.621094 472.609375 C 161.570312 472.835938 169.953125 473.097656 176.007812 473.367188 C 169.953125 473.097656 161.570312 472.835938 152.621094 472.609375 Z M 152.621094 472.609375 " fill-opacity="1" fill-rule="nonzero"/><path fill="#ffd73e" d="M 106.851562 472.042969 C 105.921875 472.0625 105.125 472.082031 104.492188 472.113281 C 102.488281 472.203125 100.78125 472.300781 99.3125 472.367188 C 100.78125 472.300781 102.488281 472.203125 104.492188 472.113281 C 105.125 472.085938 105.921875 472.0625 106.851562 472.042969 Z M 106.851562 472.042969 " fill-opacity="1" fill-rule="nonzero"/><path fill="#ffd73e" d="M 110.019531 472.007812 C 108.851562 472.015625 107.785156 472.027344 106.851562 472.042969 C 107.785156 472.027344 108.851562 472.015625 110.019531 472.007812 C 114.613281 472.074219 119.578125 472.128906 124.976562 472.164062 C 129.800781 472.191406 134.441406 472.246094 138.996094 472.3125 C 134.441406 472.246094 129.800781 472.191406 124.976562 472.160156 C 119.578125 472.128906 114.613281 472.070312 110.019531 472.007812 Z M 110.019531 472.007812 " fill-opacity="1" fill-rule="nonzero"/><path fill="#ffd73e" d="M 90.089844 471.109375 C 90.21875 471.257812 90.320312 471.359375 90.390625 471.402344 C 90.429688 471.425781 90.601562 471.449219 90.832031 471.476562 C 90.980469 471.566406 91.128906 471.648438 91.285156 471.722656 C 91.128906 471.648438 90.980469 471.5625 90.832031 471.472656 C 90.601562 471.449219 90.429688 471.421875 90.390625 471.398438 C 90.320312 471.355469 90.21875 471.257812 90.089844 471.109375 Z M 90.089844 471.109375 " fill-opacity="1" fill-rule="nonzero"/><path fill="#ffd73e" d="M 88.449219 469.125 C 88.851562 469.671875 89.242188 470.132812 89.636719 470.527344 C 89.242188 470.132812 88.851562 469.671875 88.449219 469.125 Z M 88.449219 469.125 " fill-opacity="1" fill-rule="nonzero"/><path fill="#ffd73e" d="M 576.667969 467.882812 C 576.1875 468.734375 575.6875 469.589844 575.175781 470.449219 C 574.167969 472.238281 573.15625 473.988281 572.179688 475.632812 C 573.15625 473.988281 574.171875 472.238281 575.179688 470.449219 C 575.691406 469.589844 576.1875 468.734375 576.667969 467.882812 Z M 576.667969 467.882812 " fill-opacity="1" fill-rule="nonzero"/><path fill="#ffd73e" d="M 579.359375 462.851562 C 578.527344 464.503906 577.628906 466.183594 576.667969 467.882812 C 577.628906 466.183594 578.527344 464.503906 579.359375 462.851562 Z M 579.359375 462.851562 " fill-opacity="1" fill-rule="nonzero"/><path fill="#ffd73e" d="M 581.777344 457.945312 C 581.394531 458.730469 580.988281 459.550781 580.5625 460.394531 C 580.179688 461.207031 579.777344 462.027344 579.359375 462.851562 C 579.777344 462.027344 580.179688 461.207031 580.566406 460.394531 C 580.992188 459.550781 581.394531 458.730469 581.777344 457.945312 Z M 581.777344 457.945312 " fill-opacity="1" fill-rule="nonzero"/><path fill="#ffd73e" d="M 583.722656 453.6875 C 583.199219 454.925781 582.539062 456.371094 581.777344 457.945312 C 582.539062 456.371094 583.199219 454.925781 583.722656 453.6875 Z M 583.722656 453.6875 " fill-opacity="1" fill-rule="nonzero"/><path fill="#ffd73e" d="M 585.171875 449.550781 C 584.921875 450.425781 584.660156 451.242188 584.390625 451.988281 C 584.207031 452.496094 583.980469 453.066406 583.722656 453.6875 C 583.980469 453.066406 584.207031 452.496094 584.390625 451.988281 C 584.660156 451.242188 584.921875 450.425781 585.171875 449.550781 Z M 585.171875 449.550781 " fill-opacity="1" fill-rule="nonzero"/><path fill="#ffd73e" d="M 587.933594 426.445312 C 587.964844 427.183594 587.992188 427.933594 588.011719 428.703125 C 588.035156 429.546875 588.027344 430.449219 587.996094 431.398438 C 588.027344 430.453125 588.035156 429.546875 588.011719 428.703125 C 587.992188 427.933594 587.964844 427.183594 587.933594 426.445312 Z M 587.933594 426.445312 " fill-opacity="1" fill-rule="nonzero"/><path fill="#ffd73e" d="M 587.40625 419.917969 C 587.574219 421.304688 587.703125 422.691406 587.800781 424.105469 C 587.703125 422.691406 587.574219 421.308594 587.40625 419.917969 Z M 587.40625 419.917969 " fill-opacity="1" fill-rule="nonzero"/><path fill="#ffd73e" d="M 584.519531 406.042969 C 584.96875 407.636719 585.367188 409.160156 585.714844 410.605469 C 585.367188 409.160156 584.96875 407.636719 584.519531 406.042969 Z M 584.519531 406.042969 " fill-opacity="1" fill-rule="nonzero"/><path fill="#000000" d="M 253.117188 367.613281 C 252.984375 368.199219 252.839844 368.636719 252.6875 368.933594 C 252.839844 368.636719 252.984375 368.199219 253.117188 367.613281 Z M 253.117188 367.613281 " fill-opacity="1" fill-rule="nonzero"/><path fill="#ffd73e" d="M 33.675781 356.039062 C 36.019531 361.992188 38.535156 368.144531 41.160156 374.378906 C 38.535156 368.144531 36.019531 361.992188 33.675781 356.039062 Z M 33.675781 356.039062 " fill-opacity="1" fill-rule="nonzero"/><path fill="#000000" d="M 561.335938 326.203125 C 561.769531 328.113281 562.207031 330.136719 562.660156 332.289062 C 563.269531 335.171875 563.835938 337.820312 564.378906 340.285156 C 563.835938 337.820312 563.273438 335.171875 562.664062 332.289062 C 562.207031 330.136719 561.769531 328.113281 561.335938 326.203125 Z M 561.335938 326.203125 " fill-opacity="1" fill-rule="nonzero"/><path fill="#ffd73e" d="M 217.5 293.023438 C 223.03125 295.230469 228.515625 297.394531 233.550781 299.320312 C 228.515625 297.394531 223.03125 295.230469 217.5 293.023438 Z M 217.5 293.023438 " fill-opacity="1" fill-rule="nonzero"/><path fill="#000000" d="M 546.335938 280.765625 C 546.382812 281.585938 546.4375 282.308594 546.5 282.941406 L 550.734375 292.972656 L 546.5 282.941406 C 546.4375 282.308594 546.382812 281.585938 546.335938 280.765625 Z M 546.335938 280.765625 " fill-opacity="1" fill-rule="nonzero"/><path fill="#ffd73e" d="M 545.898438 256.695312 C 546.058594 261.617188 546.148438 266.371094 546.148438 270.691406 C 546.148438 266.371094 546.058594 261.617188 545.898438 256.695312 Z M 545.898438 256.695312 " fill-opacity="1" fill-rule="nonzero"/><path fill="#ffd73e" d="M 464.855469 231.246094 C 465.039062 231.996094 465.21875 232.667969 465.394531 233.257812 C 465.410156 233.304688 465.414062 233.339844 465.425781 233.382812 C 465.414062 233.339844 465.410156 233.304688 465.398438 233.257812 C 465.21875 232.667969 465.039062 231.996094 464.855469 231.246094 Z M 464.855469 231.246094 " fill-opacity="1" fill-rule="nonzero"/><path fill="#ffd73e" d="M 77.386719 219.070312 C 79.191406 220.386719 81.199219 221.832031 83.386719 223.371094 C 81.199219 221.832031 79.191406 220.386719 77.386719 219.070312 Z M 77.386719 219.070312 " fill-opacity="1" fill-rule="nonzero"/><path fill="#ffd73e" d="M 532.203125 152.621094 C 533.113281 156.347656 533.957031 159.960938 534.757812 163.511719 C 533.957031 159.960938 533.109375 156.347656 532.203125 152.621094 Z M 532.203125 152.621094 " fill-opacity="1" fill-rule="nonzero"/><path fill="#ffd73e" d="M 461.492188 210.050781 C 462.617188 219.398438 463.765625 226.746094 464.855469 231.246094 C 463.765625 226.746094 462.617188 219.402344 461.492188 210.050781 Z M 461.492188 210.050781 " fill-opacity="1" fill-rule="nonzero"/><path fill="#ffd73e" d="M 458.773438 182.992188 C 459.632812 193.078125 460.554688 202.261719 461.492188 210.050781 C 460.554688 202.261719 459.632812 193.078125 458.773438 182.992188 Z M 458.773438 182.992188 " fill-opacity="1" fill-rule="nonzero"/><path fill="#ffd73e" d="M 455.738281 138.203125 C 455.910156 141.492188 456.089844 144.765625 456.28125 148.007812 C 456.398438 150.371094 456.523438 152.550781 456.652344 154.492188 C 456.710938 155.410156 456.789062 156.375 456.855469 157.304688 C 457.4375 166.277344 458.085938 174.925781 458.773438 182.992188 C 458.085938 174.925781 457.4375 166.277344 456.855469 157.304688 C 456.789062 156.375 456.714844 155.410156 456.652344 154.492188 C 456.523438 152.550781 456.398438 150.371094 456.28125 148.007812 C 456.09375 144.765625 455.910156 141.492188 455.738281 138.203125 Z M 455.738281 138.203125 " fill-opacity="1" fill-rule="nonzero"/><path fill="#ffd73e" d="M 527.273438 134.324219 C 528.050781 136.957031 528.792969 139.585938 529.511719 142.21875 C 528.792969 139.589844 528.050781 136.957031 527.273438 134.324219 Z M 527.273438 134.324219 " fill-opacity="1" fill-rule="nonzero"/><path fill="#ffd73e" d="M 524.8125 126.277344 C 525.65625 128.953125 526.484375 131.640625 527.273438 134.324219 C 526.484375 131.640625 525.65625 128.953125 524.8125 126.277344 Z M 524.8125 126.277344 " fill-opacity="1" fill-rule="nonzero"/><path fill="#ffd73e" d="M 518.257812 107.121094 C 519.765625 111.210938 521.210938 115.339844 522.601562 119.496094 C 521.210938 115.339844 519.765625 111.210938 518.257812 107.121094 Z M 518.257812 107.121094 " fill-opacity="1" fill-rule="nonzero"/><path fill="#ffd73e" d="M 507.703125 81.101562 C 509.566406 85.285156 511.382812 89.554688 513.144531 93.898438 C 511.382812 89.554688 509.566406 85.285156 507.703125 81.101562 Z M 507.703125 81.101562 " fill-opacity="1" fill-rule="nonzero"/><path fill="#ffd73e" d="M 503.917969 72.867188 C 505.195312 75.566406 506.460938 78.3125 507.703125 81.101562 C 506.460938 78.3125 505.195312 75.566406 503.917969 72.867188 Z M 503.917969 72.867188 " fill-opacity="1" fill-rule="nonzero"/><path fill="#ffd73e" d="M 500.027344 64.914062 C 501.339844 67.515625 502.636719 70.167969 503.917969 72.867188 C 502.636719 70.167969 501.339844 67.515625 500.027344 64.914062 Z M 500.027344 64.914062 " fill-opacity="1" fill-rule="nonzero"/><path fill="#ffd73e" d="M 487.902344 43.121094 C 489.277344 45.347656 490.644531 47.640625 492.003906 50.003906 C 490.644531 47.640625 489.277344 45.347656 487.902344 43.121094 Z M 487.902344 43.121094 " fill-opacity="1" fill-rule="nonzero"/><path fill="#ffd73e" d="M 481.679688 33.621094 C 483.761719 36.613281 485.839844 39.785156 487.898438 43.121094 C 485.839844 39.785156 483.761719 36.613281 481.679688 33.621094 Z M 481.679688 33.621094 " fill-opacity="1" fill-rule="nonzero"/><path fill="#ffd73e" d="M 473.820312 23.246094 C 474.34375 23.871094 474.882812 24.527344 475.433594 25.21875 C 476.128906 26.089844 476.820312 26.976562 477.515625 27.890625 C 476.824219 26.976562 476.128906 26.085938 475.4375 25.21875 C 474.882812 24.527344 474.34375 23.871094 473.820312 23.246094 Z M 473.820312 23.246094 " fill-opacity="1" fill-rule="nonzero"/><path fill="#ffd73e" d="M 469.484375 18.5 C 470.808594 19.789062 472.25 21.367188 473.820312 23.246094 C 472.25 21.367188 470.808594 19.789062 469.484375 18.5 Z M 469.484375 18.5 " fill-opacity="1" fill-rule="nonzero"/><path fill="#ffd73e" d="M 454.648438 99.707031 C 454.785156 111.65625 454.988281 122.28125 455.257812 128.28125 C 455.40625 131.601562 455.570312 134.910156 455.738281 138.203125 C 455.570312 134.910156 455.40625 131.601562 455.257812 128.28125 C 454.988281 122.28125 454.785156 111.65625 454.648438 99.707031 Z M 454.648438 99.707031 " fill-opacity="1" fill-rule="nonzero"/><path fill="#ffd73e" d="M 454.570312 46.515625 C 454.5 51.15625 454.464844 57.050781 454.453125 63.558594 C 454.382812 71.007812 454.414062 79.03125 454.535156 87.4375 C 454.5625 91.59375 454.601562 95.722656 454.648438 99.707031 C 454.601562 95.722656 454.566406 91.59375 454.535156 87.4375 C 454.414062 79.03125 454.386719 71.007812 454.457031 63.558594 C 454.464844 57.050781 454.5 51.15625 454.570312 46.515625 Z M 454.570312 46.515625 " fill-opacity="1" fill-rule="nonzero"/><path fill="#ffd73e" d="M 454.777344 38.449219 C 454.6875 40.253906 454.621094 43.035156 454.570312 46.515625 C 454.621094 43.035156 454.6875 40.253906 454.777344 38.449219 Z M 454.777344 38.449219 " fill-opacity="1" fill-rule="nonzero"/><path fill="#ffd73e" d="M 459.753906 15.042969 C 457.796875 16.816406 456.746094 20 455.753906 28.273438 C 455.746094 28.351562 455.734375 28.417969 455.726562 28.5 C 455.441406 30.898438 455.164062 33.644531 454.867188 36.976562 C 454.835938 37.355469 454.804688 37.847656 454.777344 38.449219 C 454.804688 37.847656 454.835938 37.355469 454.871094 36.976562 C 455.164062 33.644531 455.445312 30.898438 455.726562 28.5 C 455.738281 28.417969 455.746094 28.351562 455.753906 28.273438 C 456.746094 20 457.796875 16.816406 459.753906 15.042969 C 459.753906 15.046875 459.753906 15.042969 459.753906 15.042969 Z M 459.753906 15.042969 " fill-opacity="1" fill-rule="nonzero"/><path fill="#ffd73e" d="M 461.402344 88.066406 L 461.410156 94.71875 C 461.410156 96.300781 461.441406 98.257812 461.484375 100.375 L 461.621094 105.453125 C 462.238281 127.308594 464.195312 164.632812 465.3125 173.261719 C 465.5 174.703125 465.90625 179.222656 466.214844 183.308594 C 466.957031 193.0625 470.675781 222.027344 471.875 227.378906 C 473.300781 233.75 473.960938 234.460938 480.371094 236.527344 C 486.105469 238.375 490.671875 240.578125 493.105469 242.410156 C 493.886719 242.9375 494.398438 243.394531 494.539062 243.742188 C 495.460938 244.902344 495.125 245.765625 493.136719 246.046875 C 492.089844 246.195312 489.140625 245.6875 486.582031 244.917969 C 479.183594 242.6875 457.183594 238.457031 449.121094 237.71875 C 447.820312 237.597656 446.421875 237.5 444.984375 237.40625 C 439.597656 237.167969 433.386719 237.121094 425.140625 237.125 C 419.941406 237.132812 415.328125 237.203125 410.9375 237.320312 C 400.886719 237.757812 391.042969 238.546875 383.203125 239.652344 C 358.746094 243.101562 350.917969 244.757812 332.964844 250.304688 C 328.65625 251.636719 325.695312 252.523438 323.753906 253.25 C 323.222656 253.460938 322.738281 253.664062 322.316406 253.855469 C 319.476562 255.238281 320.875 256.292969 324.03125 259.628906 C 324.203125 259.8125 324.34375 259.972656 324.511719 260.152344 C 325.453125 261.066406 326.28125 262.007812 326.992188 262.9375 C 329.558594 266.027344 330.496094 267.976562 329.898438 268.949219 C 328.871094 270.609375 326.644531 269.761719 322.183594 266.011719 C 308.90625 254.832031 272.453125 235.25 243.847656 223.929688 C 208.292969 209.855469 171.59375 199.652344 133.761719 193.320312 C 123.59375 191.617188 123.453125 191.117188 122.953125 197.652344 C 122.886719 200.019531 122.839844 202.789062 122.839844 205.878906 C 122.839844 209.113281 122.863281 211.625 122.925781 213.734375 C 123.898438 223.074219 126.660156 231.785156 131.101562 239.261719 L 132.875 242.25 C 133.976562 243.792969 135.015625 244.949219 135.878906 245.488281 C 136.460938 245.855469 137.90625 246.632812 139.710938 247.589844 L 158.519531 256.960938 C 171.726562 263.546875 182.734375 268.933594 182.984375 268.933594 C 183.230469 268.933594 186.511719 270.359375 190.269531 272.109375 C 215.925781 284.027344 265.453125 302.1875 279.066406 304.664062 C 284.515625 305.65625 285.585938 306.039062 285.753906 307.671875 C 285.765625 307.730469 285.785156 307.789062 285.785156 307.847656 C 285.785156 307.898438 285.773438 307.945312 285.769531 307.996094 C 285.777344 308.097656 285.785156 308.1875 285.785156 308.300781 C 285.785156 309.433594 285.136719 310.042969 283.820312 310.132812 C 283.101562 310.183594 282.078125 310.199219 280.933594 310.183594 C 279.804688 310.226562 278.484375 310.1875 276.972656 310.058594 C 274.726562 309.949219 272.632812 309.78125 271.476562 309.59375 C 270.910156 309.5625 270.449219 309.550781 270.066406 309.546875 C 268.414062 310.378906 266.867188 315.886719 264.472656 329.019531 C 262.425781 340.222656 261.113281 353.496094 260.648438 366.019531 C 260.609375 373.320312 260.792969 382.125 261.210938 392.957031 C 261.285156 393.679688 261.355469 394.40625 261.4375 395.089844 C 261.800781 398.023438 262.519531 410.082031 263.042969 421.882812 C 264.550781 456.132812 266.46875 469.085938 272.203125 483.753906 C 274.644531 490 277.511719 495.691406 280.882812 500.917969 C 284.070312 505.789062 287.730469 510.304688 291.894531 514.492188 C 295.015625 517.636719 298.523438 520.664062 302.246094 523.488281 C 307.285156 527.222656 312.898438 530.65625 319.167969 533.863281 C 322.929688 535.785156 328.261719 538.054688 331.015625 538.90625 C 333.621094 539.710938 335.304688 540.550781 335.992188 541.363281 C 336.308594 541.710938 336.460938 542.066406 336.460938 542.472656 C 336.460938 542.621094 336.433594 542.753906 336.398438 542.882812 C 336.246094 545.066406 333.171875 545.066406 325.101562 543.070312 C 311.03125 539.59375 291.410156 526.257812 280.878906 513.003906 L 277.378906 508.601562 C 277.035156 508.363281 276.742188 508.277344 276.496094 508.394531 L 275.988281 511.695312 C 275.648438 513.925781 274.964844 519.292969 274.472656 523.617188 C 272.660156 539.503906 260.710938 582.011719 252.265625 602.617188 C 251.335938 604.886719 250.539062 607.003906 250.175781 608.125 C 250.09375 608.464844 250.039062 608.757812 250.003906 609.003906 C 250.210938 609.402344 251.773438 610.085938 253.679688 610.585938 C 260.6875 612.429688 270.117188 617.570312 274.078125 621.703125 C 278.003906 625.800781 278.859375 628.160156 277.191406 628.402344 C 276.214844 628.824219 274.390625 628.3125 272.5 626.945312 C 271.621094 626.503906 270.65625 625.964844 269.589844 625.316406 C 264.015625 621.933594 260.75 620.28125 256.777344 619.066406 C 256.539062 618.992188 256.296875 618.925781 256.054688 618.859375 C 254.851562 618.511719 253.585938 618.191406 252.148438 617.878906 C 239.824219 615.175781 229.277344 616.957031 222.066406 622.765625 C 221.480469 623.292969 220.871094 623.859375 220.199219 624.519531 C 219.671875 625.035156 219.167969 625.558594 218.683594 626.074219 C 218.179688 626.675781 217.699219 627.300781 217.242188 627.957031 C 215.753906 630.109375 215.148438 631.046875 215.195312 631.933594 C 215.339844 632.386719 215.570312 632.957031 215.859375 633.585938 C 215.945312 633.722656 216.015625 633.847656 216.113281 634.003906 C 219.707031 639.765625 223.765625 648.289062 226.191406 655.15625 C 229.765625 665.285156 230.09375 669.089844 227.398438 669.089844 C 226.296875 669.089844 225.015625 667.398438 223.25 663.628906 C 218.925781 654.382812 213.003906 643.351562 207.949219 634.691406 C 203.566406 627.335938 199.566406 621.257812 198.191406 620.179688 C 197.949219 620.035156 197.785156 620.058594 197.738281 620.296875 C 197.53125 621.308594 199.785156 630.648438 202.488281 640.152344 C 203.230469 642.328125 203.597656 643.820312 203.574219 644.824219 C 203.59375 645.621094 203.371094 646.117188 202.890625 646.585938 C 201.980469 647.472656 201.230469 647.066406 199 644.488281 C 194.441406 639.230469 189.679688 623.921875 189.679688 614.53125 C 189.679688 612.90625 189.453125 611.601562 189.027344 610.675781 C 188.851562 610.328125 188.667969 610.039062 188.472656 609.839844 C 188.101562 609.46875 187.828125 609.230469 187.625 609.164062 C 187.484375 609.222656 187.355469 609.328125 187.238281 609.484375 C 187.125 609.851562 187.089844 610.699219 187.074219 611.855469 C 187.121094 612.796875 187.203125 613.976562 187.324219 615.554688 C 187.894531 623 189.351562 629.753906 192.425781 639.195312 C 193.40625 642.214844 193.988281 645.261719 193.71875 645.964844 C 192.359375 649.511719 187.75 645.101562 184.554688 637.199219 C 182.890625 633.09375 182.78125 632.996094 182.738281 635.582031 C 182.605469 643.253906 187.230469 664.515625 193.734375 686.125 C 204.3125 721.269531 221.703125 753.355469 233.558594 759.59375 C 234.933594 760.320312 235.546875 760.570312 236.15625 760.144531 C 236.339844 759.972656 236.550781 759.742188 236.78125 759.484375 C 236.992188 759.210938 237.214844 758.894531 237.488281 758.472656 C 238.824219 756.441406 239.085938 753.59375 239.328125 738.4375 C 239.539062 725.191406 239.886719 720.667969 240.714844 720.351562 C 243.621094 719.234375 245.625 723.933594 246.449219 733.367188 C 247.09375 738.046875 247.402344 743.542969 247.199219 749.011719 L 246.925781 756.335938 L 247.269531 756.542969 L 249.964844 757.679688 C 256.625 760.484375 259.183594 761.085938 272.859375 761.214844 C 275.980469 761.230469 279.007812 761.246094 283.601562 761.25 C 302 761.21875 320.84375 760.453125 326.011719 759.5 C 326.753906 759.363281 331.746094 758.96875 337.109375 758.621094 C 345.050781 758.105469 346.921875 757.722656 347.195312 756.566406 C 347.578125 754.933594 346.902344 753.679688 336.027344 735.925781 C 307.257812 688.953125 288.921875 650.046875 282.5 622.34375 C 281.429688 617.734375 280.714844 613.1875 280.367188 609.308594 C 280.035156 606.683594 279.84375 604.402344 279.816406 602.648438 C 279.699219 600.980469 279.753906 600.058594 280.035156 599.625 C 280.140625 599.207031 280.28125 598.917969 280.464844 598.804688 C 280.734375 598.636719 281.039062 598.582031 281.351562 598.609375 C 281.433594 598.558594 281.515625 598.515625 281.605469 598.5 C 282.5625 598.308594 283.175781 598.871094 283.578125 600.292969 C 283.855469 600.785156 284.039062 601.332031 284.039062 601.898438 C 284.039062 601.96875 284.074219 602.160156 284.101562 602.316406 C 286.890625 613.492188 294.609375 638.511719 297.738281 646.371094 C 300.792969 654.050781 306.71875 667.726562 310.222656 675.371094 C 311.167969 677.3125 312.128906 679.265625 313.128906 681.253906 C 313.746094 682.261719 315.601562 685.710938 317.621094 689.621094 C 319.855469 693.945312 322.386719 698.664062 323.25 700.105469 C 324.109375 701.546875 326.117188 705.085938 327.707031 707.96875 C 329.292969 710.851562 331.269531 714.195312 332.09375 715.394531 C 332.917969 716.597656 334.582031 719.347656 335.789062 721.511719 C 337 723.671875 341.773438 731.585938 346.398438 739.089844 C 350.90625 746.402344 353.621094 751.398438 354.484375 753.902344 C 354.671875 754.378906 354.808594 754.765625 354.808594 754.949219 C 354.808594 754.984375 354.796875 755.046875 354.792969 755.09375 C 354.800781 755.144531 354.808594 755.207031 354.808594 755.253906 C 354.808594 756.636719 353.644531 760.226562 352.226562 763.230469 C 351.015625 765.792969 350.199219 767.9375 350.195312 768.515625 C 350.566406 768.476562 351.339844 768.195312 352.285156 767.789062 C 353.003906 767.421875 353.820312 766.988281 354.679688 766.496094 C 357.738281 764.75 359.773438 764.066406 361.316406 764.492188 C 362.359375 764.6875 363.101562 765.421875 363.824219 766.703125 C 363.953125 766.921875 364.085938 767.152344 364.214844 767.40625 L 364.617188 768.191406 C 365.03125 768.972656 365.34375 769.53125 365.570312 769.90625 C 365.878906 769.996094 366.222656 769.953125 366.625 769.777344 L 369.394531 767.40625 C 370.128906 766.777344 370.878906 766.226562 371.59375 765.738281 C 371.625 765.71875 371.648438 765.699219 371.679688 765.679688 C 372.09375 765.402344 372.5 765.128906 372.859375 764.925781 C 373.382812 764.574219 373.816406 764.320312 373.992188 764.320312 C 374.03125 764.320312 374.085938 764.347656 374.136719 764.367188 C 374.222656 764.347656 374.316406 764.324219 374.378906 764.324219 C 374.773438 764.324219 375.367188 764.695312 376 765.28125 C 376.722656 765.804688 377.417969 766.660156 378.132812 767.871094 C 378.292969 768.140625 378.460938 768.386719 378.628906 768.632812 C 379.417969 769.660156 380.152344 770.390625 380.484375 770.417969 C 380.746094 770.371094 381.449219 770 382.425781 769.40625 C 383.40625 768.777344 384.65625 767.90625 385.929688 766.945312 C 388.109375 765.296875 390.519531 763.914062 391.769531 763.550781 C 391.847656 763.519531 391.902344 763.507812 391.964844 763.492188 C 392.003906 763.476562 392.058594 763.445312 392.078125 763.445312 L 392.078125 763.449219 C 392.082031 763.449219 392.09375 763.457031 392.097656 763.457031 C 392.109375 763.457031 392.128906 763.449219 392.136719 763.449219 C 392.152344 763.449219 392.179688 763.460938 392.195312 763.464844 C 392.222656 763.460938 392.273438 763.449219 392.296875 763.449219 C 393.382812 763.449219 395.066406 764.9375 396.75 767.386719 C 399.03125 770.703125 399.972656 771.554688 402.425781 769.464844 C 402.6875 769.226562 402.953125 768.976562 403.242188 768.703125 C 404.035156 767.933594 404.941406 766.984375 406.097656 765.714844 C 408.125 763.488281 409.726562 762.238281 411.507812 761.832031 C 411.6875 761.75 411.835938 761.699219 411.9375 761.699219 C 411.976562 761.699219 412.066406 761.722656 412.113281 761.726562 C 413.746094 761.53125 415.570312 761.988281 418.015625 763.011719 C 419.007812 763.425781 419.929688 763.777344 420.617188 764.019531 C 421.035156 764.070312 421.386719 764.074219 421.605469 763.992188 C 421.433594 763.445312 420.835938 762.214844 420.019531 760.699219 C 419.28125 759.722656 418.707031 758.75 418.261719 757.636719 L 417.277344 756.152344 L 417.269531 755.796875 L 416.40625 754.273438 L 416.183594 736.800781 C 415.882812 712.929688 413.019531 682.617188 407.851562 648.527344 C 406.089844 637.855469 404.109375 627.234375 401.929688 616.890625 C 401.183594 613.597656 400.34375 609.960938 399.300781 605.507812 C 398.441406 601.835938 397.796875 598.925781 397.3125 596.550781 C 396.621094 593.691406 396.210938 591.816406 396.125 590.6875 C 396.125 590.683594 396.125 590.683594 396.125 590.683594 C 396.125 590.679688 396.121094 590.667969 396.121094 590.667969 C 395.894531 589.679688 395.96875 589.109375 396.375 588.859375 C 396.414062 588.742188 396.457031 588.644531 396.515625 588.585938 C 397.617188 587.480469 398.632812 587.984375 400.273438 590.839844 C 401.019531 591.988281 401.796875 593.53125 402.597656 595.453125 C 402.605469 595.46875 402.613281 595.476562 402.617188 595.492188 C 405.976562 602.757812 408.695312 612.6875 411.636719 628.457031 C 412.714844 634.222656 413.902344 639.28125 414.277344 639.699219 C 414.652344 640.117188 415.210938 638.546875 415.523438 636.207031 C 416.234375 630.882812 421.699219 612.976562 423.972656 608.523438 C 424.984375 606.542969 425.933594 605.53125 426.828125 605.472656 C 427.511719 605.109375 428.117188 605.332031 428.632812 606.167969 C 428.683594 606.253906 428.652344 606.710938 428.582031 607.324219 C 428.582031 607.703125 428.546875 608.164062 428.484375 608.691406 C 428.363281 611.070312 427.589844 615.105469 426.085938 621.902344 C 417.460938 660.8125 417.222656 662.871094 419.421875 680.132812 C 421.75 698.414062 423.828125 727.074219 423.832031 740.925781 C 423.832031 751.242188 424.003906 752.394531 426.199219 756.871094 C 427.792969 760.117188 428.6875 761.488281 429.816406 761.539062 C 430.246094 761.398438 430.839844 761.164062 431.511719 760.878906 C 431.726562 760.738281 431.9375 760.597656 432.183594 760.414062 C 433.3125 759.558594 434.308594 759.117188 435.300781 759.117188 L 436.21875 758.679688 L 436.289062 758.640625 L 436.300781 758.640625 L 437.25 759.691406 C 438.472656 760.394531 439.804688 761.761719 441.460938 763.882812 C 442.53125 765.25 443.566406 766.46875 444.378906 767.347656 C 445.117188 768.011719 445.683594 768.402344 446.113281 768.507812 C 446.367188 768.128906 446.550781 767.152344 446.550781 766.007812 C 446.550781 762.496094 447.972656 759.949219 449.933594 759.949219 C 450.800781 759.949219 454.222656 761.710938 457.546875 763.863281 C 460.867188 766.015625 463.800781 767.785156 464.0625 767.792969 C 464.320312 767.804688 464.519531 765.75 464.5 763.226562 C 464.496094 763.0625 464.5 762.9375 464.5 762.789062 C 464.476562 762.292969 464.484375 761.84375 464.519531 761.421875 C 464.585938 759.359375 464.886719 758.722656 465.828125 758.472656 C 466.113281 758.296875 466.441406 758.203125 466.808594 758.203125 C 466.886719 758.203125 467.011719 758.277344 467.152344 758.394531 C 468.0625 758.582031 468.757812 759.390625 469.585938 761.128906 C 470.511719 763.085938 471.988281 764.484375 473.777344 765.109375 C 474.890625 765.496094 475.925781 765.742188 476.484375 765.773438 C 476.511719 765.769531 476.550781 765.769531 476.574219 765.769531 C 476.761719 765.65625 476.847656 765.457031 476.84375 765.15625 C 476.652344 764.4375 476.109375 763.121094 475.371094 761.667969 C 473.652344 758.304688 473.609375 757.855469 474.867188 756.597656 C 476.125 755.335938 476.546875 755.507812 479.625 758.515625 C 481.414062 760.261719 482.480469 761.097656 483.6875 761.421875 L 483.691406 761.421875 C 483.859375 761.46875 484.035156 761.492188 484.210938 761.515625 C 484.300781 761.53125 484.386719 761.550781 484.480469 761.558594 C 484.484375 761.558594 484.484375 761.558594 484.488281 761.558594 C 484.984375 761.605469 485.527344 761.59375 486.160156 761.535156 L 489.285156 761.261719 L 489.191406 761.109375 L 488.109375 759.691406 L 485.890625 757.011719 C 484.753906 755.640625 483.75 754.152344 483.105469 752.949219 C 483.019531 752.800781 482.945312 752.652344 482.878906 752.507812 C 482.566406 751.867188 482.371094 751.328125 482.371094 751 C 482.371094 750.972656 482.390625 750.902344 482.394531 750.863281 C 482.390625 750.820312 482.371094 750.765625 482.371094 750.730469 C 482.371094 749.902344 483.3125 747.640625 485.113281 744.074219 C 487.261719 739.363281 490.046875 733.804688 491.121094 732.425781 C 494.640625 727.917969 512.15625 693.152344 517.3125 680.441406 C 530.195312 648.703125 535.464844 624.140625 538.6875 580.839844 C 539.160156 574.496094 539.515625 570.226562 539.878906 567.238281 C 540.066406 565.101562 540.257812 563.726562 540.574219 563.152344 C 541.191406 561.066406 541.980469 561.4375 543.34375 562.800781 C 545.496094 564.953125 545.855469 585.785156 544.03125 602.707031 C 540.269531 637.558594 532.738281 665.15625 516.984375 698.597656 C 514.898438 703.246094 513.078125 707.109375 512.074219 708.835938 C 511.910156 709.117188 511.511719 709.851562 511.25 710.316406 C 507.820312 717.089844 504.070312 724.132812 499.949219 731.550781 C 495.28125 739.960938 491.359375 747.335938 490.460938 749.367188 C 490.398438 749.511719 490.398438 749.542969 490.367188 749.632812 C 490.316406 749.789062 490.308594 749.875 490.289062 749.980469 C 490.347656 750.496094 490.90625 751.585938 491.589844 752.492188 C 492.605469 753.832031 497.652344 754.679688 505.222656 755.074219 C 508.773438 755.125 513.304688 755.144531 519.464844 755.144531 C 523.640625 755.144531 527.78125 755.09375 531.804688 755.019531 C 544.621094 754.523438 559.070312 753.453125 573.082031 751.851562 C 577.855469 751.265625 581.980469 750.738281 584.40625 750.367188 C 586.945312 749.863281 587.730469 749.175781 588.070312 747.242188 C 588.078125 747.128906 588.089844 747.015625 588.089844 746.898438 C 588.089844 746.289062 588.179688 745.722656 588.328125 745.210938 C 588.542969 743.609375 588.914062 743.082031 589.980469 742.953125 C 590.476562 742.714844 591.023438 742.707031 591.546875 743 C 592.621094 743.226562 593.128906 744 593.667969 745.972656 C 594.820312 750.207031 598.121094 755.03125 600.4375 756.09375 C 600.597656 756.160156 600.761719 756.21875 600.921875 756.265625 C 600.972656 756.277344 601.027344 756.300781 601.078125 756.308594 C 601.082031 756.308594 601.082031 756.304688 601.085938 756.308594 C 604.1875 756.746094 609.023438 752.96875 614.429688 745.882812 C 631.394531 723.648438 645.378906 680.464844 647.820312 643.460938 C 647.863281 642.402344 647.910156 641.378906 647.945312 640.253906 L 648.269531 629.179688 C 648.269531 628.96875 648.253906 628.851562 648.246094 628.675781 C 648.199219 628.421875 648.148438 628.1875 648.109375 627.988281 L 647.042969 633.816406 C 646.328125 639.464844 645.085938 644.769531 643.695312 648.625 C 643.105469 650.40625 642.511719 651.726562 641.890625 652.632812 C 641.117188 653.925781 640.347656 654.667969 639.640625 654.667969 C 639.332031 654.667969 639.105469 654.539062 638.929688 654.242188 C 638.414062 654.238281 638.125 654.070312 638.066406 652.984375 C 637.964844 652.039062 638.078125 650.40625 638.332031 647.460938 C 638.519531 645.304688 638.71875 643.230469 638.898438 641.480469 C 639.113281 638.511719 639.386719 635.5 639.664062 633.417969 C 640.65625 625.953125 640.792969 610.167969 639.894531 609.695312 C 639.566406 609.683594 639.160156 609.941406 638.734375 610.394531 C 637.742188 611.8125 637.054688 615.332031 636.648438 621.066406 C 635.90625 631.503906 633.910156 641.652344 631.707031 647.703125 C 631.523438 648.226562 631.332031 648.710938 631.140625 649.167969 C 631.140625 649.175781 631.140625 649.183594 631.136719 649.1875 C 630.058594 651.785156 628.925781 653.359375 627.875 653.359375 C 627.871094 653.359375 627.867188 653.359375 627.867188 653.359375 C 627.039062 653.355469 626.511719 653.128906 626.246094 652.378906 C 625.742188 651.105469 625.996094 648.34375 626.886719 642.78125 C 627.609375 638.265625 628.425781 630.835938 628.703125 626.273438 L 629.167969 618.671875 C 628.964844 618.839844 628.726562 619.105469 628.453125 619.476562 L 625.695312 624.960938 C 617.148438 641.957031 607.753906 668.277344 602.148438 690.925781 C 599.414062 701.96875 598.789062 703.59375 597.265625 703.59375 C 597.25 703.59375 597.238281 703.59375 597.21875 703.59375 C 597.210938 703.59375 597.199219 703.59375 597.1875 703.59375 C 596.804688 703.59375 596.507812 703.527344 596.269531 703.367188 C 596.207031 703.328125 596.148438 703.277344 596.09375 703.21875 C 595.835938 702.953125 595.660156 702.503906 595.53125 701.800781 C 595.117188 700.535156 595.039062 698.511719 595.226562 695.9375 C 595.425781 686.375 599.289062 671.648438 607.074219 650.785156 L 610.550781 641.460938 C 610.734375 640.222656 609.984375 639.191406 607.359375 636.308594 L 601.265625 630.480469 C 590.183594 619.882812 581.996094 615.066406 573.351562 614.527344 C 572.800781 614.511719 572.226562 614.503906 571.582031 614.5 C 570.777344 614.496094 569.949219 614.53125 569.113281 614.589844 C 568.042969 614.6875 566.960938 614.824219 565.855469 615.035156 C 559.964844 616.171875 551.882812 619.441406 549.382812 621.707031 C 548.003906 622.957031 547.71875 623.070312 546.820312 621.921875 C 546.488281 621.785156 546.296875 621.507812 546.246094 621.117188 C 545.367188 619.765625 545.859375 619.085938 549.828125 615.273438 C 549.980469 615.121094 550.136719 614.996094 550.292969 614.851562 C 550.328125 614.820312 550.355469 614.789062 550.394531 614.757812 C 550.429688 614.722656 550.46875 614.695312 550.503906 614.664062 C 554.871094 610.675781 559.199219 608.738281 566.464844 607.519531 C 568.269531 607.21875 569.742188 606.574219 569.742188 606.089844 C 569.742188 605.609375 566.863281 599.628906 563.339844 592.808594 C 549.558594 566.105469 542.375 544.96875 539.972656 524.046875 C 539.394531 519.003906 538.679688 514.601562 538.386719 514.269531 C 538.09375 513.9375 534.511719 516.433594 530.425781 519.8125 C 526.339844 523.195312 521.421875 527.003906 519.492188 528.28125 C 517.5625 529.558594 514.523438 531.722656 512.742188 533.089844 C 507.484375 537.132812 493.484375 544.53125 486.78125 546.8125 C 481.574219 548.585938 480.425781 548.734375 479.796875 547.710938 C 479.636719 547.453125 479.542969 547.160156 479.480469 546.859375 C 479.253906 546.5 479.152344 546.152344 479.285156 545.941406 C 479.300781 545.914062 479.371094 545.855469 479.429688 545.804688 C 479.535156 544.90625 480 544.144531 480.6875 544.144531 C 481.582031 544.144531 497.25 534.824219 504.652344 529.890625 C 516.859375 521.753906 531.574219 509.746094 542.023438 499.605469 C 545.113281 496.460938 548.183594 493.199219 551.003906 490.074219 C 555.398438 484.910156 561.023438 477.699219 564.300781 473.109375 C 565.152344 471.84375 565.96875 470.613281 566.730469 469.441406 C 566.816406 469.273438 566.898438 469.117188 566.9375 469.011719 C 567.195312 468.285156 568.117188 466.664062 568.988281 465.410156 L 570.375 463.402344 C 570.425781 463.300781 570.472656 463.199219 570.507812 463.121094 L 566.261719 462.617188 C 560.011719 461.875 552.722656 457.972656 548.203125 452.945312 C 542.113281 446.171875 539.21875 438.007812 539.144531 427.453125 C 539.140625 427.238281 539.140625 427.019531 539.140625 426.800781 C 539.140625 426.75 539.136719 426.703125 539.136719 426.652344 C 539.136719 426.480469 539.144531 426.316406 539.148438 426.144531 C 539.152344 425.859375 539.152344 425.574219 539.164062 425.285156 C 539.40625 417.003906 541.335938 410.65625 545.144531 405.617188 C 545.867188 404.59375 546.664062 403.632812 547.519531 402.722656 C 547.539062 402.703125 547.558594 402.679688 547.578125 402.65625 C 547.652344 402.578125 547.726562 402.5 547.800781 402.421875 C 553.425781 396.300781 559.640625 393.628906 568.210938 393.503906 C 570.769531 393.464844 572.871094 393.222656 573.175781 392.945312 C 573.199219 392.898438 573.207031 392.847656 573.214844 392.792969 C 573.15625 392.347656 572.175781 389.527344 570.964844 386.324219 C 564.875 370.257812 560.429688 355.128906 557.515625 340.570312 C 555.039062 328.195312 551.824219 315.390625 549.070312 306.933594 C 546.082031 297.753906 539.117188 282.953125 535.25 277.574219 C 533.558594 275.21875 532.171875 273.09375 532.171875 272.851562 C 532.171875 272.609375 530.011719 269.59375 527.367188 266.148438 C 524.214844 262.042969 522.695312 259.488281 522.664062 258.082031 C 522.519531 257.160156 522.925781 256.695312 523.902344 256.695312 C 523.949219 256.695312 524.003906 256.703125 524.050781 256.707031 C 524.089844 256.703125 524.121094 256.695312 524.164062 256.695312 C 524.183594 256.695312 524.226562 256.707031 524.25 256.714844 C 524.386719 256.707031 524.523438 256.695312 524.675781 256.695312 C 526.191406 256.695312 528.546875 258.605469 533.015625 263.453125 L 539.242188 270.210938 L 539.121094 259.546875 L 538.894531 251.449219 C 538.828125 249.09375 538.734375 246.734375 538.632812 244.378906 C 537.441406 222.445312 534.152344 194.3125 530.328125 174.507812 C 530.113281 173.421875 529.894531 172.335938 529.675781 171.25 C 527.136719 159.058594 520.945312 135.941406 516.566406 122.402344 C 511.835938 107.777344 511.789062 107.707031 501.511719 100.753906 C 489.886719 92.882812 480.160156 89.300781 467.738281 88.320312 L 464.59375 88.070312 Z M 515.515625 318.367188 L 515.519531 318.367188 C 526.246094 318.492188 536.480469 324.988281 541.644531 336.09375 C 544.875 343.042969 544.847656 353.675781 541.574219 360.664062 C 538.804688 366.582031 533.148438 372.1875 527.378906 374.730469 C 522 377.105469 512.894531 377.761719 508.445312 376.101562 C 499.359375 372.703125 493.285156 367.207031 489.5 358.957031 C 486.496094 352.414062 486.375 342.203125 489.222656 335.832031 C 492.289062 328.972656 496.625 324.375 502.972656 321.25 C 507.046875 319.242188 511.320312 318.316406 515.515625 318.367188 Z M 31.980469 320.738281 C 30.53125 320.757812 29.671875 320.863281 29.558594 321.0625 C 29.109375 321.828125 32.234375 330.683594 39.996094 350.617188 C 44.707031 362.71875 47.605469 369.597656 57.300781 391.679688 C 64.363281 407.761719 79.835938 439.160156 84.441406 446.746094 C 86.582031 450.269531 88.332031 453.382812 88.332031 453.664062 C 88.332031 453.710938 88.425781 453.894531 88.5 454.042969 C 89.496094 455.738281 90.324219 457.109375 90.980469 458.144531 C 91.183594 458.453125 91.367188 458.75 91.582031 459.070312 L 93.144531 461.429688 L 94.574219 463.535156 L 101.949219 463.628906 L 107.527344 463.367188 C 120.753906 462.742188 167.101562 464.03125 194.832031 465.796875 C 195.863281 465.863281 196.445312 465.914062 197.351562 465.972656 C 207.574219 466.496094 210.378906 466.785156 211.382812 467.839844 C 211.582031 467.976562 211.726562 468.125 211.828125 468.289062 C 212.535156 469.414062 211.695312 473.222656 208.257812 484.453125 C 199.453125 513.246094 189.328125 548.625 187.105469 558.09375 C 186.785156 559.621094 186.691406 560.429688 186.785156 560.6875 C 187.300781 561.011719 190.902344 562.386719 195.152344 563.867188 C 222.519531 573.390625 238.910156 579.691406 242.585938 582.097656 C 242.769531 582.21875 242.96875 582.40625 243.171875 582.621094 L 244.308594 583.148438 L 245.027344 585.429688 C 245.410156 586.1875 245.757812 586.992188 246.023438 587.792969 C 246.828125 590.214844 247.75 592.195312 248.074219 592.195312 C 248.394531 592.195312 250.136719 587.96875 251.941406 582.804688 C 255.203125 573.46875 258.09375 563.335938 257.628906 562.871094 C 257.496094 562.738281 249.9375 559.046875 240.835938 554.671875 C 231.734375 550.292969 224.117188 546.542969 223.914062 546.335938 C 222.769531 545.195312 223.898438 541.207031 226.539062 537.0625 C 228.191406 534.46875 229.804688 531.757812 230.128906 531.035156 C 230.785156 529.582031 236.585938 521.253906 246.480469 507.570312 C 250.082031 502.59375 253.613281 497.667969 254.335938 496.625 C 255.054688 495.578125 257.535156 492.097656 259.84375 488.890625 L 263.0625 484.421875 C 263.613281 483.519531 263.90625 482.9375 263.933594 482.6875 L 262.3125 477.125 C 258.808594 465.101562 256.25 447.652344 256.125 434.929688 C 256.089844 431.324219 255.675781 421.496094 255.203125 413.085938 C 254.730469 404.675781 254.082031 392.953125 253.765625 387.039062 L 253.234375 377.039062 L 253.183594 376.273438 L 248.214844 373.765625 C 245.476562 372.382812 238.363281 369.226562 232.40625 366.75 C 184.519531 346.84375 140.417969 334.367188 89.203125 326.230469 C 72.613281 323.59375 44.148438 320.902344 33.617188 320.738281 C 33.007812 320.730469 32.460938 320.730469 31.980469 320.738281 Z M 343.25 327.894531 L 343.253906 327.894531 C 343.839844 327.878906 344.421875 327.890625 345.007812 327.914062 C 350.027344 327.984375 352.0625 328.453125 355.886719 330.246094 C 360.101562 332.222656 363.945312 335.421875 366.929688 339.335938 C 368.019531 340.699219 368.894531 342.039062 369.59375 343.449219 C 369.859375 343.941406 370.117188 344.433594 370.355469 344.9375 C 372.277344 348.980469 372.632812 350.917969 372.601562 357.167969 C 372.566406 363.53125 372.203125 365.328125 370.054688 369.707031 C 367.171875 375.582031 361.597656 380.933594 355.246094 383.925781 C 349.011719 386.863281 337.890625 386.863281 331.65625 383.925781 C 323.960938 380.300781 318.359375 373.949219 315.703125 366.664062 C 315.390625 365.898438 315.167969 365.191406 315.003906 364.480469 C 313.683594 359.695312 313.605469 354.601562 315.015625 349.664062 C 317.617188 340.566406 322.808594 334.34375 331.222656 330.242188 C 335.183594 328.308594 337.113281 327.921875 343.035156 327.902344 C 343.105469 327.902344 343.179688 327.894531 343.25 327.894531 Z M 452.753906 364.429688 L 452.757812 364.429688 C 456.054688 364.542969 457.910156 365.539062 457.910156 367.289062 C 457.910156 369.402344 455.46875 373.542969 453.351562 375.027344 C 452.605469 375.550781 451.953125 375.886719 451.300781 376.078125 C 451.203125 376.113281 451.101562 376.140625 451.003906 376.160156 C 450.9375 376.175781 450.867188 376.1875 450.800781 376.199219 C 450.667969 376.21875 450.53125 376.234375 450.394531 376.234375 C 449.226562 376.300781 447.933594 375.878906 446.027344 374.929688 C 444.539062 374.183594 442.65625 372.457031 441.847656 371.082031 C 440.941406 369.550781 440.636719 368.921875 440.957031 368.238281 C 440.96875 368.195312 440.972656 368.152344 440.984375 368.113281 C 441.144531 367.695312 441.503906 367.300781 442.023438 366.941406 C 442.035156 366.925781 442.039062 366.921875 442.054688 366.90625 C 443.136719 365.824219 445.601562 365.007812 448.992188 364.617188 C 450.394531 364.453125 451.65625 364.390625 452.753906 364.429688 Z M 451.855469 387.570312 C 452.851562 387.578125 453.792969 387.707031 454.761719 387.925781 C 456.683594 388.355469 464.765625 391.710938 472.71875 395.375 C 481.058594 399.222656 486.101562 401.332031 490.054688 402.117188 C 492.320312 402.382812 494.570312 402.390625 496.703125 402.125 C 498.253906 401.796875 499.855469 401.253906 501.714844 400.511719 C 508.371094 397.847656 508.253906 397.863281 508.875 399.488281 C 509.578125 401.316406 506.339844 404.996094 502.164062 407.113281 C 499.789062 408.316406 498.640625 408.929688 497.980469 410.167969 C 497.648438 411.078125 497.359375 412.242188 497.109375 413.734375 C 497.023438 414.402344 496.9375 415.148438 496.84375 416.03125 C 496.039062 423.433594 493.5 433.988281 488.933594 448.90625 C 481.734375 472.410156 472.015625 491.960938 462.324219 502.425781 C 452.683594 512.839844 443.390625 515.785156 432.902344 511.75 C 431.960938 511.386719 431.015625 510.933594 430.074219 510.4375 C 429.148438 510.007812 428.332031 509.527344 427.460938 508.894531 C 409.121094 496.804688 392.144531 460.488281 387.125 420.949219 C 386.714844 417.714844 386.285156 415.539062 385.777344 414.207031 C 385.757812 414.152344 385.738281 414.109375 385.71875 414.058594 C 385.632812 413.851562 385.546875 413.652344 385.457031 413.488281 C 385.441406 413.453125 385.421875 413.433594 385.40625 413.402344 C 385.199219 413.046875 384.980469 412.792969 384.746094 412.648438 C 384.152344 412.289062 382.761719 411.179688 381.296875 409.921875 C 380.808594 409.5 380.3125 409.0625 379.835938 408.628906 C 377.40625 406.429688 376.589844 405.144531 376.929688 404.050781 C 376.933594 404.023438 376.945312 403.996094 376.949219 403.964844 C 376.953125 403.957031 376.953125 403.953125 376.957031 403.945312 C 376.957031 403.941406 376.957031 403.9375 376.957031 403.9375 C 376.984375 403.8125 377.035156 403.695312 377.105469 403.59375 C 377.328125 403.070312 377.570312 402.78125 378.292969 402.832031 C 378.644531 402.84375 379.121094 402.953125 379.746094 403.148438 C 379.75 403.148438 379.75 403.148438 379.757812 403.152344 C 379.875 403.1875 380.015625 403.234375 380.144531 403.28125 C 381.492188 403.707031 383.453125 404.441406 386.523438 405.601562 C 390.914062 407.257812 394.117188 407.84375 398.820312 407.84375 C 406.507812 407.84375 410.230469 406.453125 429.730469 396.285156 C 430.332031 395.972656 430.8125 395.734375 431.378906 395.441406 C 432.148438 395.042969 432.914062 394.644531 433.660156 394.269531 C 443.398438 389.316406 448.039062 387.542969 451.855469 387.570312 Z M 304.84375 409.066406 C 311.117188 409.0625 317.484375 411.070312 323.003906 414.570312 C 326.804688 416.800781 330.039062 419.765625 332.613281 423.394531 C 334.03125 425.277344 335.257812 427.308594 336.25 429.464844 C 337.507812 432.191406 338.089844 433.890625 338.367188 436.746094 C 339.300781 441.210938 339.324219 445.714844 338.539062 450.03125 C 338.363281 454.015625 337.742188 455.519531 335.695312 459.597656 C 330.089844 470.769531 320.039062 477.472656 306.757812 478.894531 C 304.59375 479.125 301.054688 478.964844 298.894531 478.539062 C 294.753906 477.71875 291 476.378906 287.648438 474.5625 C 286.429688 474.011719 285.46875 473.519531 285.085938 473.222656 C 284.636719 472.871094 284.179688 472.472656 283.71875 472.074219 C 279.21875 468.761719 275.667969 464.386719 273.167969 459.050781 C 273.132812 458.988281 273.089844 458.914062 273.058594 458.851562 C 272.097656 456.851562 271.515625 455.433594 271.148438 453.8125 C 270.691406 452.351562 270.300781 450.832031 269.980469 449.257812 C 269.144531 445.167969 269.125 442.78125 269.890625 438.96875 C 273.070312 423.132812 283.554688 412.710938 299.453125 409.582031 C 301.226562 409.234375 303.03125 409.066406 304.84375 409.066406 Z M 304.84375 409.066406 " fill-opacity="1" fill-rule="nonzero"/><path fill="#ee4e36" d="M 569.515625 400.648438 C 566.335938 400.609375 562.617188 401.253906 559.695312 402.535156 C 554.613281 404.761719 550.023438 409.808594 547.867188 415.527344 C 545.507812 421.792969 545.707031 431.851562 548.148438 438.886719 C 548.625 440.144531 549.15625 441.339844 549.738281 442.480469 C 552.265625 447.082031 556.601562 451.601562 560.570312 453.65625 C 563.652344 455.25 570.484375 455.445312 573.601562 454.027344 C 577.671875 452.171875 581.640625 435.390625 580.722656 423.917969 C 579.957031 414.332031 577.273438 403.410156 575.335938 401.992188 C 574.136719 401.117188 571.988281 400.675781 569.515625 400.648438 Z M 305.027344 415.609375 C 303.570312 415.609375 302.117188 415.746094 300.6875 416.027344 C 287.890625 418.542969 279.449219 426.933594 276.890625 439.683594 C 276.273438 442.75 276.289062 444.671875 276.960938 447.96875 C 277.21875 449.234375 277.535156 450.453125 277.898438 451.632812 C 278.195312 452.9375 278.664062 454.082031 279.441406 455.691406 C 279.464844 455.742188 279.5 455.800781 279.527344 455.851562 C 281.539062 460.144531 284.398438 463.667969 288.023438 466.335938 C 288.390625 466.65625 288.761719 466.976562 289.125 467.257812 C 289.429688 467.5 290.203125 467.894531 291.1875 468.339844 C 293.882812 469.800781 296.902344 470.878906 300.238281 471.539062 C 301.976562 471.882812 304.828125 472.011719 306.566406 471.824219 C 317.261719 470.679688 325.351562 465.285156 329.863281 456.289062 C 331.511719 453.007812 332.011719 451.796875 332.15625 448.589844 C 332.785156 445.113281 332.769531 441.488281 332.015625 437.894531 C 331.792969 435.59375 331.324219 434.226562 330.3125 432.03125 C 329.511719 430.296875 328.523438 428.660156 327.382812 427.144531 C 325.308594 424.222656 322.707031 421.835938 319.648438 420.042969 C 315.203125 417.226562 310.078125 415.609375 305.027344 415.609375 Z M 305.027344 415.609375 " fill-opacity="1" fill-rule="nonzero"/><path fill="#ffffff" d="M 510.507812 326.59375 C 505.523438 326.585938 500.746094 331.480469 500.722656 336.601562 C 500.722656 336.652344 500.722656 336.699219 500.722656 336.75 C 500.757812 338.792969 501.777344 341.292969 503.207031 343.210938 C 503.246094 343.261719 503.285156 343.308594 503.324219 343.355469 C 503.570312 343.613281 503.820312 343.871094 504.113281 344.167969 C 504.660156 344.714844 505.199219 345.1875 505.734375 345.601562 C 508.601562 347.222656 513.648438 346.929688 516.507812 344.894531 C 520.078125 342.351562 521.390625 337.515625 519.644531 333.335938 C 518.191406 329.867188 513.765625 326.601562 510.507812 326.59375 Z M 344.589844 335.359375 C 344.320312 335.359375 344.058594 335.378906 343.796875 335.394531 C 336.59375 336.140625 332.691406 343.3125 335.945312 349.898438 C 336.804688 351.453125 338.046875 352.875 339.445312 353.953125 C 342.914062 356.207031 347.628906 356 351.238281 352.988281 C 353.6875 350.945312 354.226562 349.820312 354.59375 346.019531 C 354.652344 345.402344 354.695312 344.882812 354.722656 344.40625 C 354.585938 342.878906 354.269531 341.53125 353.765625 340.386719 C 353.335938 339.824219 352.757812 339.214844 351.949219 338.40625 C 350.695312 337.148438 349.789062 336.394531 348.820312 335.941406 C 347.59375 335.542969 346.1875 335.339844 344.589844 335.359375 Z M 344.589844 335.359375 " fill-opacity="1" fill-rule="nonzero"/><path fill="#ee7277" d="M 440.351562 431.378906 C 425.875 431.515625 413.078125 440.015625 401.136719 452.789062 C 408.273438 475.976562 418.75 494.640625 429.769531 502.65625 C 430.558594 503.285156 431.304688 503.769531 432.140625 504.195312 C 432.996094 504.691406 433.851562 505.144531 434.707031 505.507812 C 444.214844 509.542969 452.640625 506.601562 461.378906 496.1875 C 468.886719 487.246094 476.40625 471.664062 482.503906 452.667969 C 466.828125 437.464844 452.953125 431.257812 440.351562 431.378906 Z M 440.351562 431.378906 " fill-opacity="1" fill-rule="nonzero"/></svg>